<svg xmlns="http://www.w3.org/2000/svg" xmlns:xlink="http://www.w3.org/1999/xlink" width="192" zoomAndPan="magnify" viewBox="0 0 144 143.999998" height="192" preserveAspectRatio="xMidYMid meet" version="1.0"><defs><filter x="0%" y="0%" width="100%" height="100%" id="76630e01d7"><feColorMatrix values="0 0 0 0 1 0 0 0 0 1 0 0 0 0 1 0 0 0 1 0" color-interpolation-filters="sRGB"/></filter><clipPath id="91584b2569"><path d="M 16.703125 10.398438 L 82 10.398438 L 82 133.398438 L 16.703125 133.398438 Z M 16.703125 10.398438 " clip-rule="nonzero"/></clipPath><mask id="48137b9dd9"><g filter="url(#76630e01d7)"><rect x="-14.4" width="172.8" fill="#000000" y="-14.4" height="172.799997" fill-opacity="0.3"/></g></mask><clipPath id="d6375a8e9c"><path d="M 0.703125 0.398438 L 65.359375 0.398438 L 65.359375 123.398438 L 0.703125 123.398438 Z M 0.703125 0.398438 " clip-rule="nonzero"/></clipPath><clipPath id="ceb8d8875a"><rect x="0" width="66" y="0" height="124"/></clipPath><mask id="7d0a8b7a9a"><g filter="url(#76630e01d7)"><rect x="-14.4" width="172.8" fill="#000000" y="-14.4" height="172.799997" fill-opacity="0.2"/></g></mask><clipPath id="c7681ac89e"><path d="M 1 0.121094 L 58.761719 0.121094 L 58.761719 111.71875 L 1 111.71875 Z M 1 0.121094 " clip-rule="nonzero"/></clipPath><clipPath id="42b5098ac5"><rect x="0" width="59" y="0" height="112"/></clipPath><clipPath id="e4c9847d9e"><path d="M 63 14 L 129.953125 14 L 129.953125 129 L 63 129 Z M 63 14 " clip-rule="nonzero"/></clipPath><clipPath id="7cb9e85f18"><path d="M 16.703125 10.398438 L 80 10.398438 L 80 133.398438 L 16.703125 133.398438 Z M 16.703125 10.398438 " clip-rule="nonzero"/></clipPath></defs><rect x="-14.4" width="172.8" fill="#ffffff" y="-14.4" height="172.799997" fill-opacity="1"/><rect x="-14.4" width="172.8" fill="#222222" y="-14.4" height="172.799997" fill-opacity="1"/><g clip-path="url(#91584b2569)"><g mask="url(#48137b9dd9)"><g transform="matrix(1, 0, 0, 1, 16, 10)"><g clip-path="url(#ceb8d8875a)"><g clip-path="url(#d6375a8e9c)"><path fill="#fffefa" d="M 57.488281 83.386719 C 58.148438 84.410156 58.722656 85.558594 59.199219 86.828125 C 61.066406 91.8125 60.863281 96.910156 60.804688 97.878906 C 60.609375 100.984375 59.871094 105.460938 57.425781 109.128906 C 57.175781 109.5 56.914062 109.859375 56.640625 110.195312 C 56.679688 110.277344 56.71875 110.367188 56.757812 110.460938 C 56.777344 110.496094 56.792969 110.535156 56.804688 110.574219 C 57.074219 111.214844 57.40625 112.191406 57.550781 113.359375 C 57.8125 115.449219 57.597656 119.363281 53.222656 122.089844 C 51.457031 123.191406 49.789062 123.574219 48.320312 123.574219 C 45.242188 123.574219 43.035156 121.878906 42.613281 121.53125 C 42.15625 121.179688 39.648438 119.132812 38.5625 115.433594 C 37.882812 115.699219 37.171875 115.898438 36.441406 116.011719 C 35.769531 116.117188 35.105469 116.171875 34.457031 116.171875 C 31.667969 116.171875 29.113281 115.199219 26.980469 113.3125 C 24.695312 111.296875 22.996094 108.28125 22.132812 104.832031 C 21.835938 104.9375 21.511719 105.03125 21.164062 105.105469 C 20.632812 105.226562 20.011719 105.3125 19.328125 105.3125 C 17.75 105.3125 15.832031 104.859375 13.84375 103.347656 C 10.21875 100.589844 9.578125 96.898438 9.570312 94.671875 C 9.074219 94.515625 8.585938 94.308594 8.109375 94.054688 C 4.496094 92.089844 2.472656 87.734375 2.554688 82.097656 C 2.621094 77.652344 4.457031 73.664062 7.40625 71.074219 C 6.21875 70.476562 5.121094 69.652344 4.160156 68.632812 C 1.988281 66.316406 0.757812 63.222656 0.703125 59.925781 C 0.609375 54.21875 3.511719 48.175781 10.214844 47.546875 C 10.347656 47.535156 10.476562 47.527344 10.609375 47.519531 C 10.582031 47.464844 10.558594 47.414062 10.535156 47.363281 C 9.765625 45.652344 9.359375 43.804688 9.328125 41.886719 C 9.269531 38.375 10.480469 35.050781 12.738281 32.523438 C 14.996094 29.996094 18.035156 28.570312 21.285156 28.503906 C 21.445312 28.5 21.601562 28.503906 21.761719 28.503906 C 21.660156 27.863281 21.605469 27.207031 21.59375 26.542969 C 21.535156 23.035156 22.75 19.710938 25.007812 17.183594 C 27.265625 14.65625 30.300781 13.230469 33.550781 13.164062 C 33.777344 13.160156 34 13.164062 34.222656 13.175781 C 34.238281 10.515625 35.09375 7.933594 36.726562 5.710938 C 39.039062 2.570312 42.742188 0.496094 46.15625 0.433594 C 49.957031 0.355469 53.425781 1.738281 55.921875 4.320312 C 56.550781 4.976562 57.113281 5.699219 57.605469 6.480469 C 59.203125 9.007812 60.066406 12.179688 60.125 15.796875 C 60.203125 20.539062 58.894531 25.039062 56.441406 28.46875 C 55.207031 30.1875 53.761719 31.546875 52.171875 32.492188 C 56.039062 35.066406 58.605469 39.640625 58.691406 44.859375 C 58.753906 48.675781 57.722656 52.085938 55.710938 54.71875 C 55.445312 55.0625 55.175781 55.382812 54.902344 55.679688 C 57.183594 56.304688 59.285156 57.5625 61.027344 59.375 C 63.667969 62.125 65.160156 65.820312 65.222656 69.777344 C 65.320312 75.613281 62.265625 80.890625 57.488281 83.386719 Z M 57.488281 83.386719 " fill-opacity="1" fill-rule="nonzero"/></g></g></g></g></g><g mask="url(#7d0a8b7a9a)"><g transform="matrix(1, 0, 0, 1, 67, 15)"><g clip-path="url(#42b5098ac5)"><g clip-path="url(#c7681ac89e)"><path fill="#ffde59" d="M 58.5 33.839844 L 57.878906 68.253906 L 56.113281 68.773438 L 55.847656 87.507812 L 37.726562 109.265625 L 30.824219 109.265625 L 30.914062 111.460938 L 11.113281 111.078125 L 10.757812 105.820312 L 6.511719 105.574219 L 5.804688 105.574219 C 5.789062 105.535156 5.773438 105.496094 5.757812 105.460938 C 5.71875 105.367188 5.679688 105.28125 5.640625 105.195312 C 5.914062 104.859375 6.175781 104.5 6.425781 104.128906 C 8.867188 100.457031 9.609375 95.984375 9.800781 92.878906 C 9.863281 91.910156 10.066406 86.8125 8.199219 81.828125 C 7.71875 80.558594 7.148438 79.410156 6.488281 78.386719 C 11.261719 75.890625 14.320312 70.613281 14.222656 64.78125 C 14.15625 60.820312 12.664062 57.125 10.023438 54.375 C 8.285156 52.5625 6.183594 51.304688 3.898438 50.679688 C 4.175781 50.382812 4.445312 50.0625 4.707031 49.71875 C 6.722656 47.085938 7.753906 43.675781 7.6875 39.859375 C 7.601562 34.640625 5.035156 30.066406 1.167969 27.492188 C 2.757812 26.546875 4.207031 25.191406 5.4375 23.46875 C 7.894531 20.039062 9.203125 15.539062 9.125 10.796875 C 9.0625 7.179688 8.199219 4.007812 6.605469 1.480469 L 7.761719 0.285156 L 31.8125 0.285156 L 34.273438 2.886719 L 38.957031 3.914062 L 51.335938 17.644531 L 51.335938 32.804688 L 58.496094 33.839844 Z M 58.5 33.839844 " fill-opacity="1" fill-rule="nonzero"/></g></g></g></g><path fill="#ffde59" d="M 84.113281 76.582031 C 83.34375 76.582031 82.675781 77.0625 82.355469 77.761719 L 70.40625 77.761719 C 70.085938 77.0625 69.421875 76.582031 68.648438 76.582031 C 67.566406 76.582031 66.691406 77.527344 66.691406 78.699219 C 66.691406 79.867188 67.566406 80.8125 68.648438 80.8125 C 69.421875 80.8125 70.085938 80.332031 70.40625 79.632812 L 82.355469 79.632812 C 82.675781 80.332031 83.34375 80.8125 84.113281 80.8125 C 85.195312 80.8125 86.074219 79.867188 86.074219 78.699219 C 86.074219 77.527344 85.195312 76.582031 84.113281 76.582031 Z M 84.113281 76.582031 " fill-opacity="1" fill-rule="nonzero"/><path fill="#ffde59" d="M 80.578125 111.035156 C 81.660156 111.035156 82.539062 110.089844 82.539062 108.921875 C 82.539062 107.75 81.660156 106.804688 80.578125 106.804688 C 80.515625 106.804688 80.457031 106.808594 80.394531 106.816406 L 76.949219 102.039062 L 70.40625 102.039062 C 70.085938 101.339844 69.421875 100.859375 68.652344 100.859375 C 67.570312 100.859375 66.691406 101.804688 66.691406 102.972656 C 66.691406 104.140625 67.566406 105.089844 68.652344 105.089844 C 69.421875 105.089844 70.085938 104.605469 70.40625 103.90625 L 76.105469 103.90625 L 78.914062 107.804688 C 78.730469 108.128906 78.621094 108.511719 78.621094 108.921875 C 78.621094 110.089844 79.496094 111.035156 80.578125 111.035156 Z M 80.578125 111.035156 " fill-opacity="1" fill-rule="nonzero"/><path fill="#ffde59" d="M 84.855469 102.023438 L 89.960938 102.023438 L 94.050781 106.441406 L 101.257812 106.441406 L 105.589844 101.761719 L 105.589844 99.441406 L 110.410156 99.441406 L 110.410156 86.695312 L 102.730469 86.695312 L 99.039062 90.679688 L 99.039062 91.886719 L 94.1875 91.886719 L 90.09375 96.304688 L 82.097656 96.304688 C 81.777344 95.605469 81.113281 95.121094 80.339844 95.121094 C 79.257812 95.121094 78.382812 96.070312 78.382812 97.238281 C 78.382812 98.40625 79.257812 99.355469 80.339844 99.355469 C 81.113281 99.355469 81.777344 98.871094 82.097656 98.171875 L 90.8125 98.171875 L 94.90625 93.757812 L 99.039062 93.757812 L 99.039062 99.441406 L 103.859375 99.441406 L 103.859375 100.988281 L 100.539062 104.570312 L 94.765625 104.570312 L 90.675781 100.15625 L 84.640625 100.15625 C 84.289062 99.585938 83.691406 99.210938 83.007812 99.210938 C 81.925781 99.210938 81.050781 100.15625 81.050781 101.324219 C 81.050781 102.496094 81.925781 103.441406 83.007812 103.441406 C 83.863281 103.441406 84.589844 102.847656 84.855469 102.023438 Z M 100.773438 91.453125 L 103.449219 88.5625 L 108.679688 88.5625 L 108.679688 97.570312 L 100.773438 97.570312 Z M 100.773438 91.453125 " fill-opacity="1" fill-rule="nonzero"/><path fill="#ffde59" d="M 87.574219 86.925781 C 88.65625 86.925781 89.535156 85.976562 89.535156 84.808594 C 89.535156 83.640625 88.660156 82.691406 87.574219 82.691406 C 86.804688 82.691406 86.140625 83.175781 85.820312 83.875 L 70.40625 83.875 C 70.085938 83.175781 69.421875 82.691406 68.648438 82.691406 C 67.566406 82.691406 66.691406 83.640625 66.691406 84.808594 C 66.691406 85.976562 67.566406 86.925781 68.648438 86.925781 C 69.421875 86.925781 70.085938 86.441406 70.40625 85.742188 L 85.820312 85.742188 C 86.140625 86.441406 86.804688 86.925781 87.574219 86.925781 Z M 87.574219 86.925781 " fill-opacity="1" fill-rule="nonzero"/><path fill="#ffde59" d="M 69.035156 59.785156 L 76.613281 59.785156 C 76.933594 60.484375 77.597656 60.964844 78.371094 60.964844 C 79.453125 60.964844 80.332031 60.019531 80.332031 58.851562 C 80.332031 57.683594 79.453125 56.734375 78.371094 56.734375 C 77.597656 56.734375 76.933594 57.21875 76.613281 57.917969 L 69.035156 57.917969 C 68.714844 57.21875 68.050781 56.734375 67.28125 56.734375 C 66.199219 56.734375 65.320312 57.683594 65.320312 58.851562 C 65.320312 60.019531 66.195312 60.964844 67.28125 60.964844 C 68.050781 60.964844 68.714844 60.484375 69.035156 59.785156 Z M 69.035156 59.785156 " fill-opacity="1" fill-rule="nonzero"/><path fill="#ffde59" d="M 66.746094 34.496094 L 75.328125 34.496094 L 81.03125 26.566406 L 84.523438 26.566406 C 84.84375 27.265625 85.507812 27.746094 86.28125 27.746094 C 87.363281 27.746094 88.242188 26.800781 88.242188 25.628906 C 88.242188 24.460938 87.363281 23.515625 86.28125 23.515625 C 85.507812 23.515625 84.84375 23.996094 84.523438 24.695312 L 80.183594 24.695312 L 74.480469 32.625 L 67.085938 32.625 C 66.851562 31.738281 66.097656 31.085938 65.199219 31.085938 C 64.117188 31.085938 63.238281 32.03125 63.238281 33.199219 C 63.238281 34.367188 64.117188 35.316406 65.199219 35.316406 C 65.832031 35.316406 66.386719 34.992188 66.746094 34.496094 Z M 66.746094 34.496094 " fill-opacity="1" fill-rule="nonzero"/><path fill="#ffde59" d="M 114.792969 51.707031 L 121.878906 51.707031 L 121.878906 79.980469 L 114.792969 79.980469 Z M 114.792969 51.707031 " fill-opacity="1" fill-rule="nonzero"/><g clip-path="url(#e4c9847d9e)"><path fill="#ffde59" d="M 127.640625 51.621094 L 127.640625 50.6875 L 129.589844 50.6875 L 129.589844 48.820312 L 127.640625 48.820312 L 127.640625 47.882812 L 125.808594 47.882812 L 125.808594 47.199219 L 119.203125 47.199219 L 119.203125 32.171875 L 106.363281 17.894531 L 101.859375 17.445312 L 99.25 14.339844 L 74.207031 14.339844 L 69.308594 20.621094 L 67.277344 20.585938 C 67.003906 19.769531 66.285156 19.1875 65.433594 19.1875 C 64.351562 19.1875 63.472656 20.136719 63.472656 21.304688 C 63.472656 22.472656 64.351562 23.417969 65.433594 23.417969 C 66.125 23.417969 66.730469 23.035156 67.078125 22.453125 L 70.105469 22.503906 L 75.011719 16.207031 L 98.484375 16.207031 L 101.027344 19.238281 L 105.566406 19.691406 L 117.46875 32.929688 L 117.46875 47.199219 L 114.789062 47.199219 L 114.933594 34.777344 L 104.265625 22.96875 L 99.90625 22.96875 L 96.765625 18.589844 L 77.871094 18.589844 L 71.535156 26.605469 L 67.09375 26.605469 C 66.875 25.695312 66.109375 25.019531 65.199219 25.019531 C 64.117188 25.019531 63.238281 25.96875 63.238281 27.136719 C 63.238281 28.304688 64.117188 29.253906 65.199219 29.253906 C 65.8125 29.253906 66.355469 28.949219 66.714844 28.476562 L 72.335938 28.476562 L 78.671875 20.460938 L 95.917969 20.460938 L 99.054688 24.839844 L 103.535156 24.839844 L 113.191406 35.527344 L 113.058594 47.203125 L 110.863281 47.203125 L 110.863281 47.886719 L 109.03125 47.886719 L 109.03125 48.820312 L 96.058594 48.820312 L 88.699219 40.875 L 76.492188 40.875 L 68.011719 50.03125 C 67.785156 49.933594 67.539062 49.878906 67.28125 49.878906 C 66.199219 49.878906 65.320312 50.824219 65.320312 51.992188 C 65.320312 53.160156 66.195312 54.109375 67.28125 54.109375 C 68.363281 54.109375 69.238281 53.160156 69.238281 51.992188 C 69.238281 51.796875 69.210938 51.605469 69.164062 51.425781 L 77.207031 42.746094 L 87.980469 42.746094 L 95.339844 50.691406 L 109.03125 50.691406 L 109.03125 51.625 L 110.863281 51.625 L 110.863281 54.257812 L 109.03125 54.257812 L 109.03125 55.191406 L 93.75 55.191406 L 89.65625 50.777344 L 80.941406 50.777344 C 80.621094 50.078125 79.957031 49.597656 79.183594 49.597656 C 78.101562 49.597656 77.226562 50.542969 77.226562 51.710938 C 77.226562 52.878906 78.101562 53.828125 79.183594 53.828125 C 79.957031 53.828125 80.621094 53.34375 80.941406 52.644531 L 88.941406 52.644531 L 93.03125 57.0625 L 109.03125 57.0625 L 109.03125 57.996094 L 110.859375 57.996094 L 110.859375 60.628906 L 109.03125 60.628906 L 109.03125 61.5625 L 91.441406 61.5625 L 87.347656 57.148438 L 85.167969 57.148438 C 84.851562 56.449219 84.183594 55.96875 83.414062 55.96875 C 82.332031 55.96875 81.453125 56.914062 81.453125 58.082031 C 81.453125 59.25 82.332031 60.199219 83.414062 60.199219 C 84.183594 60.199219 84.851562 59.714844 85.167969 59.015625 L 86.632812 59.015625 L 90.722656 63.433594 L 109.03125 63.433594 L 109.03125 64.367188 L 110.859375 64.367188 L 110.859375 67 L 109.03125 67 L 109.03125 67.640625 L 88.4375 67.640625 L 88.4375 65.03125 L 87.125 65.03125 L 87.125 62.964844 L 85.394531 62.964844 L 85.394531 65.03125 L 84.1875 65.03125 L 84.1875 62.964844 L 82.453125 62.964844 L 82.453125 65.03125 L 81.546875 65.03125 L 81.546875 66.019531 L 79.707031 66.019531 L 79.707031 67.890625 L 81.546875 67.890625 L 81.546875 69.195312 L 79.707031 69.195312 L 79.707031 71.0625 L 81.546875 71.0625 L 81.546875 72.117188 L 82.453125 72.117188 L 82.453125 74.089844 L 84.1875 74.089844 L 84.1875 72.117188 L 85.394531 72.117188 L 85.394531 74.089844 L 87.125 74.089844 L 87.125 72.117188 L 88.4375 72.117188 L 88.4375 69.507812 L 109.03125 69.507812 L 109.03125 70.738281 L 110.859375 70.738281 L 110.859375 73.371094 L 109.03125 73.371094 L 109.03125 74.40625 L 97.1875 74.40625 L 93.09375 78.820312 L 91.632812 78.820312 C 91.316406 78.121094 90.648438 77.640625 89.878906 77.640625 C 88.796875 77.640625 87.917969 78.585938 87.917969 79.753906 C 87.917969 80.921875 88.792969 81.871094 89.878906 81.871094 C 90.648438 81.871094 91.316406 81.386719 91.632812 80.6875 L 93.8125 80.6875 L 97.90625 76.273438 L 109.03125 76.273438 L 109.03125 77.109375 L 110.863281 77.109375 L 110.863281 79.742188 L 109.03125 79.742188 L 109.03125 80.675781 L 100.039062 80.675781 L 91.480469 89.933594 L 85.867188 89.933594 C 85.550781 89.234375 84.882812 88.75 84.113281 88.75 C 83.03125 88.75 82.152344 89.699219 82.152344 90.867188 C 82.152344 92.035156 83.03125 92.984375 84.113281 92.984375 C 84.882812 92.984375 85.550781 92.5 85.867188 91.800781 L 92.199219 91.800781 L 100.757812 82.546875 L 109.03125 82.546875 L 109.03125 83.480469 L 110.859375 83.480469 L 110.859375 84.492188 L 113.042969 84.492188 L 113.042969 99.023438 L 105.414062 107.921875 L 101.402344 107.921875 L 99.914062 109.691406 L 92.707031 109.691406 L 88.261719 104.898438 L 87.203125 104.898438 C 86.894531 104.164062 86.210938 103.648438 85.414062 103.648438 C 84.332031 103.648438 83.453125 104.597656 83.453125 105.765625 C 83.453125 106.933594 84.332031 107.878906 85.414062 107.878906 C 86.160156 107.878906 86.808594 107.429688 87.140625 106.765625 L 87.546875 106.765625 L 91.988281 111.5625 L 100.683594 111.5625 L 102.167969 109.789062 L 106.167969 109.789062 L 114.769531 99.757812 L 114.769531 84.492188 L 117.464844 84.492188 L 117.464844 100.875 L 101.09375 119.871094 L 98.8125 119.871094 L 98.8125 114.371094 L 97.714844 114.371094 L 97.714844 113.058594 L 95.980469 113.058594 L 95.980469 114.371094 L 94.117188 114.371094 L 94.117188 113.058594 L 92.386719 113.058594 L 92.386719 114.371094 L 90.523438 114.371094 L 90.523438 113.058594 L 88.792969 113.058594 L 88.792969 114.371094 L 86.929688 114.371094 L 86.929688 113.058594 L 85.199219 113.058594 L 85.199219 114.371094 L 83.335938 114.371094 L 83.335938 113.058594 L 81.601562 113.058594 L 81.601562 114.371094 L 79.742188 114.371094 L 79.742188 113.058594 L 78.007812 113.058594 L 78.007812 114.371094 L 77.09375 114.371094 L 77.09375 119.894531 L 74.265625 119.894531 L 70.21875 111.464844 C 70.457031 111.113281 70.601562 110.679688 70.601562 110.210938 C 70.601562 109.042969 69.722656 108.09375 68.640625 108.09375 C 67.558594 108.09375 66.679688 109.042969 66.679688 110.210938 C 66.679688 111.378906 67.558594 112.328125 68.640625 112.328125 C 68.652344 112.328125 68.667969 112.324219 68.679688 112.324219 L 73.210938 121.761719 L 77.09375 121.761719 L 77.09375 127.242188 L 78.007812 127.242188 L 78.007812 128.554688 L 79.738281 128.554688 L 79.738281 127.242188 L 81.601562 127.242188 L 81.601562 128.554688 L 83.332031 128.554688 L 83.332031 127.242188 L 85.195312 127.242188 L 85.195312 128.554688 L 86.929688 128.554688 L 86.929688 127.242188 L 88.792969 127.242188 L 88.792969 128.554688 L 90.523438 128.554688 L 90.523438 127.242188 L 92.386719 127.242188 L 92.386719 128.554688 L 94.117188 128.554688 L 94.117188 127.242188 L 95.980469 127.242188 L 95.980469 128.554688 L 97.710938 128.554688 L 97.710938 127.242188 L 98.808594 127.242188 L 98.808594 125.246094 L 104.648438 125.246094 L 123.769531 103.34375 L 123.769531 84.492188 L 125.804688 84.492188 L 125.804688 83.480469 L 127.632812 83.480469 L 127.632812 82.546875 L 129.582031 82.546875 L 129.582031 80.675781 L 127.632812 80.675781 L 127.632812 79.742188 L 125.804688 79.742188 L 125.804688 77.109375 L 127.632812 77.109375 L 127.632812 76.175781 L 129.582031 76.175781 L 129.582031 74.304688 L 127.632812 74.304688 L 127.632812 73.371094 L 125.804688 73.371094 L 125.804688 70.738281 L 127.632812 70.738281 L 127.632812 69.804688 L 129.582031 69.804688 L 129.582031 67.933594 L 127.632812 67.933594 L 127.632812 67 L 125.804688 67 L 125.804688 64.367188 L 127.632812 64.367188 L 127.632812 63.433594 L 129.582031 63.433594 L 129.582031 61.5625 L 127.632812 61.5625 L 127.632812 60.628906 L 125.804688 60.628906 L 125.804688 57.996094 L 127.632812 57.996094 L 127.632812 57.0625 L 129.582031 57.0625 L 129.582031 55.191406 L 127.632812 55.191406 L 127.632812 54.257812 L 125.804688 54.257812 L 125.804688 51.625 L 127.632812 51.625 Z M 86.707031 70.246094 L 83.28125 70.246094 L 83.28125 66.902344 L 86.707031 66.902344 Z M 89.328125 119.949219 C 89.644531 120.574219 90.257812 120.996094 90.964844 120.996094 C 92 120.996094 92.835938 120.09375 92.835938 118.976562 C 92.835938 117.863281 92 116.957031 90.964844 116.957031 C 90.230469 116.957031 89.597656 117.417969 89.289062 118.082031 L 82.023438 118.082031 L 80.503906 119.894531 L 78.835938 119.894531 L 78.835938 116.238281 L 97.085938 116.238281 L 97.085938 119.871094 L 95.726562 119.871094 L 93.734375 122.246094 L 86.199219 122.246094 C 85.960938 121.425781 85.25 120.828125 84.410156 120.828125 C 83.378906 120.828125 82.539062 121.730469 82.539062 122.847656 C 82.539062 123.964844 83.378906 124.867188 84.410156 124.867188 C 85 124.867188 85.523438 124.574219 85.867188 124.117188 L 94.5 124.117188 L 96.496094 121.742188 L 97.085938 121.742188 L 97.085938 125.375 L 78.835938 125.375 L 78.835938 121.761719 L 81.269531 121.761719 L 82.789062 119.953125 L 89.324219 119.953125 Z M 122.046875 102.601562 L 103.90625 123.375 L 98.816406 123.375 L 98.816406 121.738281 L 101.855469 121.738281 L 119.203125 101.609375 L 119.203125 84.488281 L 122.046875 84.488281 Z M 124.078125 82.621094 L 112.59375 82.621094 L 112.59375 49.066406 L 124.078125 49.066406 Z M 124.078125 82.621094 " fill-opacity="1" fill-rule="nonzero"/></g><path fill="#ffde59" d="M 104.726562 90.109375 C 103.070312 90.109375 101.722656 91.5625 101.722656 93.347656 C 101.722656 95.136719 103.070312 96.589844 104.726562 96.589844 C 106.378906 96.589844 107.726562 95.136719 107.726562 93.347656 C 107.726562 91.5625 106.378906 90.109375 104.726562 90.109375 Z M 104.726562 94.71875 C 104.023438 94.71875 103.457031 94.105469 103.457031 93.347656 C 103.457031 92.59375 104.023438 91.980469 104.726562 91.980469 C 105.425781 91.980469 105.992188 92.59375 105.992188 93.347656 C 105.992188 94.105469 105.425781 94.71875 104.726562 94.71875 Z M 104.726562 94.71875 " fill-opacity="1" fill-rule="nonzero"/><path fill="#ffde59" d="M 99.984375 26.316406 L 92.78125 26.316406 L 88.6875 30.730469 L 84.855469 30.730469 C 84.589844 29.90625 83.863281 29.316406 83.007812 29.316406 C 81.925781 29.316406 81.050781 30.261719 81.050781 31.429688 C 81.050781 32.597656 81.925781 33.546875 83.007812 33.546875 C 83.691406 33.546875 84.289062 33.171875 84.640625 32.601562 L 89.40625 32.601562 L 93.5 28.183594 L 99.269531 28.183594 L 102.589844 31.769531 L 102.589844 33.316406 L 97.769531 33.316406 L 97.769531 39 L 93.636719 39 L 89.542969 34.585938 L 82.097656 34.585938 C 81.777344 33.886719 81.113281 33.402344 80.339844 33.402344 C 79.257812 33.402344 78.382812 34.351562 78.382812 35.519531 C 78.382812 36.6875 79.257812 37.632812 80.339844 37.632812 C 81.113281 37.632812 81.777344 37.152344 82.097656 36.453125 L 88.828125 36.453125 L 92.917969 40.867188 L 97.769531 40.867188 L 97.769531 42.078125 L 101.460938 46.0625 L 109.140625 46.0625 L 109.140625 36.277344 L 106.398438 33.316406 L 104.320312 33.316406 L 104.320312 30.996094 L 99.988281 26.316406 Z M 107.410156 37.054688 L 107.410156 44.195312 L 102.179688 44.195312 L 99.503906 41.304688 L 99.503906 35.1875 L 105.679688 35.1875 Z M 107.410156 37.054688 " fill-opacity="1" fill-rule="nonzero"/><path fill="#ffde59" d="M 103.457031 42.648438 C 105.109375 42.648438 106.457031 41.195312 106.457031 39.410156 C 106.457031 37.625 105.109375 36.171875 103.457031 36.171875 C 101.800781 36.171875 100.453125 37.625 100.453125 39.410156 C 100.453125 41.199219 101.800781 42.648438 103.457031 42.648438 Z M 103.457031 38.039062 C 104.15625 38.039062 104.726562 38.652344 104.726562 39.410156 C 104.726562 40.164062 104.15625 40.777344 103.457031 40.777344 C 102.753906 40.777344 102.1875 40.164062 102.1875 39.410156 C 102.1875 38.652344 102.753906 38.039062 103.457031 38.039062 Z M 103.457031 38.039062 " fill-opacity="1" fill-rule="nonzero"/><path fill="#fffefa" d="M 44.171875 66.378906 C 44.171875 66.949219 43.742188 67.414062 43.214844 67.414062 C 42.691406 67.414062 42.261719 66.949219 42.261719 66.378906 C 42.261719 65.8125 42.6875 65.347656 43.214844 65.347656 C 43.746094 65.347656 44.171875 65.8125 44.171875 66.378906 Z M 44.171875 66.378906 " fill-opacity="1" fill-rule="nonzero"/><path fill="#fffefa" d="M 33.105469 50.429688 C 33.105469 51 32.679688 51.460938 32.152344 51.460938 C 31.621094 51.460938 31.195312 51 31.195312 50.429688 C 31.195312 49.859375 31.625 49.398438 32.152344 49.398438 C 32.675781 49.398438 33.105469 49.859375 33.105469 50.429688 Z M 33.105469 50.429688 " fill-opacity="1" fill-rule="nonzero"/><path fill="#fffefa" d="M 41.347656 47.335938 C 41.347656 47.90625 40.917969 48.367188 40.390625 48.367188 C 39.863281 48.367188 39.433594 47.90625 39.433594 47.335938 C 39.433594 46.765625 39.863281 46.304688 40.390625 46.304688 C 40.917969 46.304688 41.347656 46.765625 41.347656 47.335938 Z M 41.347656 47.335938 " fill-opacity="1" fill-rule="nonzero"/><path fill="#fffefa" d="M 42.273438 75.316406 C 42.140625 75.871094 41.617188 76.199219 41.105469 76.058594 C 40.59375 75.914062 40.289062 75.351562 40.421875 74.796875 C 40.554688 74.246094 41.078125 73.914062 41.589844 74.058594 C 42.101562 74.203125 42.40625 74.765625 42.273438 75.316406 Z M 42.273438 75.316406 " fill-opacity="1" fill-rule="nonzero"/><path fill="#fffefa" d="M 27.828125 65.972656 C 27.695312 66.523438 27.171875 66.855469 26.660156 66.710938 C 26.148438 66.566406 25.84375 66.003906 25.976562 65.449219 C 26.109375 64.898438 26.632812 64.570312 27.144531 64.710938 C 27.65625 64.855469 27.960938 65.421875 27.828125 65.972656 Z M 27.828125 65.972656 " fill-opacity="1" fill-rule="nonzero"/><path fill="#fffefa" d="M 55.339844 70.894531 C 55.339844 71.03125 55.316406 71.160156 55.265625 71.289062 C 55.21875 71.414062 55.148438 71.527344 55.058594 71.625 C 54.96875 71.71875 54.867188 71.796875 54.75 71.847656 C 54.632812 71.898438 54.511719 71.925781 54.382812 71.925781 C 54.257812 71.925781 54.132812 71.898438 54.015625 71.847656 C 53.898438 71.796875 53.796875 71.71875 53.707031 71.625 C 53.617188 71.527344 53.546875 71.414062 53.5 71.289062 C 53.453125 71.160156 53.425781 71.03125 53.425781 70.894531 C 53.425781 70.757812 53.453125 70.625 53.5 70.5 C 53.546875 70.371094 53.617188 70.261719 53.707031 70.164062 C 53.796875 70.066406 53.898438 69.992188 54.015625 69.9375 C 54.132812 69.886719 54.257812 69.859375 54.382812 69.859375 C 54.511719 69.859375 54.632812 69.886719 54.75 69.9375 C 54.867188 69.992188 54.96875 70.066406 55.058594 70.164062 C 55.148438 70.261719 55.21875 70.371094 55.265625 70.5 C 55.316406 70.625 55.339844 70.757812 55.339844 70.894531 Z M 55.339844 70.894531 " fill-opacity="1" fill-rule="nonzero"/><path fill="#fffefa" d="M 41.472656 94.765625 C 41.472656 95.335938 41.042969 95.796875 40.519531 95.796875 C 39.992188 95.796875 39.5625 95.335938 39.5625 94.765625 C 39.5625 94.195312 39.988281 93.730469 40.519531 93.730469 C 41.046875 93.730469 41.472656 94.195312 41.472656 94.765625 Z M 41.472656 94.765625 " fill-opacity="1" fill-rule="nonzero"/><path fill="#fffefa" d="M 37.273438 87.953125 C 37.273438 88.523438 36.84375 88.984375 36.316406 88.984375 C 35.789062 88.984375 35.359375 88.523438 35.359375 87.953125 C 35.359375 87.382812 35.789062 86.917969 36.316406 86.917969 C 36.84375 86.917969 37.273438 87.382812 37.273438 87.953125 Z M 37.273438 87.953125 " fill-opacity="1" fill-rule="nonzero"/><path fill="#fffefa" d="M 30.15625 89.40625 C 30.15625 89.542969 30.132812 89.675781 30.085938 89.800781 C 30.035156 89.925781 29.96875 90.039062 29.878906 90.136719 C 29.789062 90.230469 29.683594 90.308594 29.566406 90.359375 C 29.449219 90.410156 29.328125 90.4375 29.203125 90.4375 C 29.074219 90.4375 28.953125 90.410156 28.835938 90.359375 C 28.71875 90.308594 28.613281 90.230469 28.523438 90.136719 C 28.433594 90.039062 28.367188 89.925781 28.316406 89.800781 C 28.269531 89.675781 28.246094 89.542969 28.246094 89.40625 C 28.246094 89.269531 28.269531 89.136719 28.316406 89.011719 C 28.367188 88.882812 28.433594 88.773438 28.523438 88.675781 C 28.613281 88.578125 28.71875 88.503906 28.835938 88.449219 C 28.953125 88.398438 29.074219 88.371094 29.203125 88.371094 C 29.328125 88.371094 29.449219 88.398438 29.566406 88.449219 C 29.683594 88.503906 29.789062 88.578125 29.878906 88.675781 C 29.96875 88.773438 30.035156 88.882812 30.085938 89.011719 C 30.132812 89.136719 30.15625 89.269531 30.15625 89.40625 Z M 30.15625 89.40625 " fill-opacity="1" fill-rule="nonzero"/><path fill="#fffefa" d="M 26.414062 73.085938 C 26.414062 73.65625 25.988281 74.117188 25.460938 74.117188 C 24.933594 74.117188 24.503906 73.65625 24.503906 73.085938 C 24.503906 72.515625 24.933594 72.050781 25.460938 72.050781 C 25.988281 72.050781 26.414062 72.515625 26.414062 73.085938 Z M 26.414062 73.085938 " fill-opacity="1" fill-rule="nonzero"/><path fill="#fffefa" d="M 30.15625 96.828125 C 30.15625 97.398438 29.730469 97.863281 29.203125 97.863281 C 28.671875 97.863281 28.246094 97.398438 28.246094 96.828125 C 28.246094 96.257812 28.671875 95.796875 29.203125 95.796875 C 29.730469 95.796875 30.15625 96.257812 30.15625 96.828125 Z M 30.15625 96.828125 " fill-opacity="1" fill-rule="nonzero"/><path fill="#fffefa" d="M 46.492188 103.832031 C 45.964844 103.832031 45.539062 104.296875 45.539062 104.867188 C 45.539062 105.4375 45.964844 105.898438 46.492188 105.898438 C 47.023438 105.898438 47.449219 105.4375 47.449219 104.867188 C 47.449219 104.296875 47.023438 103.832031 46.492188 103.832031 Z M 46.492188 103.832031 " fill-opacity="1" fill-rule="nonzero"/><path fill="#fffefa" d="M 54.578125 116.332031 C 54.578125 115.761719 54.148438 115.296875 53.621094 115.296875 C 53.09375 115.296875 52.664062 115.761719 52.664062 116.332031 C 52.664062 116.902344 53.09375 117.363281 53.621094 117.363281 C 54.148438 117.363281 54.578125 116.902344 54.578125 116.332031 Z M 54.578125 116.332031 " fill-opacity="1" fill-rule="nonzero"/><path fill="#fffefa" d="M 46.492188 114.636719 C 45.964844 114.636719 45.539062 115.097656 45.539062 115.667969 C 45.539062 116.238281 45.964844 116.699219 46.492188 116.699219 C 47.023438 116.699219 47.449219 116.238281 47.449219 115.667969 C 47.449219 115.097656 47.023438 114.636719 46.492188 114.636719 Z M 46.492188 114.636719 " fill-opacity="1" fill-rule="nonzero"/><path fill="#fffefa" d="M 52.878906 100.410156 C 52.878906 100.546875 52.855469 100.679688 52.808594 100.808594 C 52.757812 100.933594 52.691406 101.046875 52.601562 101.140625 C 52.511719 101.238281 52.40625 101.3125 52.289062 101.367188 C 52.171875 101.417969 52.050781 101.445312 51.921875 101.445312 C 51.796875 101.445312 51.675781 101.417969 51.558594 101.367188 C 51.441406 101.3125 51.335938 101.238281 51.246094 101.140625 C 51.15625 101.046875 51.089844 100.933594 51.039062 100.808594 C 50.992188 100.679688 50.96875 100.546875 50.96875 100.410156 C 50.96875 100.273438 50.992188 100.144531 51.039062 100.015625 C 51.089844 99.890625 51.15625 99.777344 51.246094 99.679688 C 51.335938 99.585938 51.441406 99.511719 51.558594 99.457031 C 51.675781 99.40625 51.796875 99.378906 51.921875 99.378906 C 52.050781 99.378906 52.171875 99.40625 52.289062 99.457031 C 52.40625 99.511719 52.511719 99.585938 52.601562 99.679688 C 52.691406 99.777344 52.757812 99.890625 52.808594 100.015625 C 52.855469 100.144531 52.878906 100.273438 52.878906 100.410156 Z M 52.878906 100.410156 " fill-opacity="1" fill-rule="nonzero"/><path fill="#fffefa" d="M 64.472656 116.699219 C 64.472656 117.269531 64.898438 117.734375 65.425781 117.734375 C 65.957031 117.734375 66.382812 117.269531 66.382812 116.699219 C 66.382812 116.128906 65.957031 115.667969 65.425781 115.667969 C 64.898438 115.667969 64.472656 116.128906 64.472656 116.699219 Z M 64.472656 116.699219 " fill-opacity="1" fill-rule="nonzero"/><path fill="#fffefa" d="M 62.035156 107.882812 C 62.035156 108.453125 62.464844 108.917969 62.992188 108.917969 C 63.519531 108.917969 63.949219 108.453125 63.949219 107.882812 C 63.949219 107.3125 63.519531 106.851562 62.992188 106.851562 C 62.464844 106.851562 62.035156 107.3125 62.035156 107.882812 Z M 62.035156 107.882812 " fill-opacity="1" fill-rule="nonzero"/><path fill="#fffefa" d="M 56.539062 83.773438 C 56.011719 83.773438 55.582031 84.234375 55.582031 84.804688 C 55.582031 85.375 56.011719 85.835938 56.539062 85.835938 C 57.070312 85.835938 57.496094 85.375 57.496094 84.804688 C 57.496094 84.234375 57.070312 83.773438 56.539062 83.773438 Z M 56.539062 83.773438 " fill-opacity="1" fill-rule="nonzero"/><path fill="#fffefa" d="M 58.453125 93.851562 C 58.980469 93.851562 59.410156 93.390625 59.410156 92.820312 C 59.410156 92.25 58.980469 91.785156 58.453125 91.785156 C 57.925781 91.785156 57.496094 92.25 57.496094 92.820312 C 57.496094 93.390625 57.925781 93.851562 58.453125 93.851562 Z M 58.453125 93.851562 " fill-opacity="1" fill-rule="nonzero"/><path fill="#fffefa" d="M 48.007812 86.921875 C 48.007812 87.492188 48.433594 87.953125 48.964844 87.953125 C 49.492188 87.953125 49.921875 87.492188 49.921875 86.921875 C 49.921875 86.351562 49.492188 85.886719 48.964844 85.886719 C 48.433594 85.886719 48.007812 86.351562 48.007812 86.921875 Z M 48.007812 86.921875 " fill-opacity="1" fill-rule="nonzero"/><path fill="#fffefa" d="M 63.542969 73.035156 C 63.542969 73.605469 63.972656 74.066406 64.5 74.066406 C 65.027344 74.066406 65.457031 73.605469 65.457031 73.035156 C 65.457031 72.464844 65.027344 72.003906 64.5 72.003906 C 63.972656 72.003906 63.542969 72.464844 63.542969 73.035156 Z M 63.542969 73.035156 " fill-opacity="1" fill-rule="nonzero"/><path fill="#fffefa" d="M 52.238281 58.847656 C 52.238281 58.984375 52.214844 59.113281 52.167969 59.242188 C 52.117188 59.367188 52.050781 59.480469 51.960938 59.578125 C 51.871094 59.671875 51.765625 59.746094 51.648438 59.800781 C 51.53125 59.851562 51.410156 59.878906 51.28125 59.878906 C 51.15625 59.878906 51.035156 59.851562 50.917969 59.800781 C 50.800781 59.746094 50.695312 59.671875 50.605469 59.578125 C 50.515625 59.480469 50.449219 59.367188 50.398438 59.242188 C 50.351562 59.113281 50.328125 58.984375 50.328125 58.847656 C 50.328125 58.710938 50.351562 58.578125 50.398438 58.449219 C 50.449219 58.324219 50.515625 58.210938 50.605469 58.117188 C 50.695312 58.019531 50.800781 57.945312 50.917969 57.890625 C 51.035156 57.839844 51.15625 57.8125 51.28125 57.8125 C 51.410156 57.8125 51.53125 57.839844 51.648438 57.890625 C 51.765625 57.945312 51.871094 58.019531 51.960938 58.117188 C 52.050781 58.210938 52.117188 58.324219 52.167969 58.449219 C 52.214844 58.578125 52.238281 58.710938 52.238281 58.847656 Z M 52.238281 58.847656 " fill-opacity="1" fill-rule="nonzero"/><path fill="#fffefa" d="M 46.679688 33.675781 C 46.679688 34.246094 47.105469 34.707031 47.632812 34.707031 C 48.164062 34.707031 48.589844 34.246094 48.589844 33.675781 C 48.589844 33.105469 48.164062 32.644531 47.632812 32.644531 C 47.105469 32.644531 46.679688 33.105469 46.679688 33.675781 Z M 46.679688 33.675781 " fill-opacity="1" fill-rule="nonzero"/><path fill="#fffefa" d="M 57.863281 21.269531 C 57.863281 21.839844 58.292969 22.300781 58.820312 22.300781 C 59.347656 22.300781 59.777344 21.839844 59.777344 21.269531 C 59.777344 20.699219 59.347656 20.234375 58.820312 20.234375 C 58.292969 20.234375 57.863281 20.699219 57.863281 21.269531 Z M 57.863281 21.269531 " fill-opacity="1" fill-rule="nonzero"/><path fill="#fffefa" d="M 51.671875 38.910156 C 51.671875 39.480469 52.101562 39.945312 52.628906 39.945312 C 53.15625 39.945312 53.585938 39.480469 53.585938 38.910156 C 53.585938 38.339844 53.15625 37.878906 52.628906 37.878906 C 52.101562 37.878906 51.671875 38.339844 51.671875 38.910156 Z M 51.671875 38.910156 " fill-opacity="1" fill-rule="nonzero"/><path fill="#fffefa" d="M 58.820312 36.546875 C 58.820312 37.117188 59.25 37.582031 59.777344 37.582031 C 60.304688 37.582031 60.734375 37.117188 60.734375 36.546875 C 60.734375 35.976562 60.304688 35.515625 59.777344 35.515625 C 59.25 35.515625 58.820312 35.976562 58.820312 36.546875 Z M 58.820312 36.546875 " fill-opacity="1" fill-rule="nonzero"/><path fill="#fffefa" d="M 56.515625 49.398438 C 56.515625 49.535156 56.492188 49.664062 56.445312 49.792969 C 56.394531 49.917969 56.328125 50.03125 56.238281 50.128906 C 56.148438 50.222656 56.042969 50.296875 55.925781 50.351562 C 55.808594 50.402344 55.6875 50.429688 55.558594 50.429688 C 55.433594 50.429688 55.3125 50.402344 55.195312 50.351562 C 55.078125 50.296875 54.972656 50.222656 54.882812 50.128906 C 54.792969 50.03125 54.726562 49.917969 54.675781 49.792969 C 54.628906 49.664062 54.605469 49.535156 54.605469 49.398438 C 54.605469 49.261719 54.628906 49.128906 54.675781 49 C 54.726562 48.875 54.792969 48.761719 54.882812 48.667969 C 54.972656 48.570312 55.078125 48.496094 55.195312 48.441406 C 55.3125 48.390625 55.433594 48.363281 55.558594 48.363281 C 55.6875 48.363281 55.808594 48.390625 55.925781 48.441406 C 56.042969 48.496094 56.148438 48.570312 56.238281 48.667969 C 56.328125 48.761719 56.394531 48.875 56.445312 49 C 56.492188 49.128906 56.515625 49.261719 56.515625 49.398438 Z M 56.515625 49.398438 " fill-opacity="1" fill-rule="nonzero"/><path fill="#fffefa" d="M 61.953125 56.492188 C 61.953125 57.0625 62.382812 57.523438 62.910156 57.523438 C 63.4375 57.523438 63.867188 57.0625 63.867188 56.492188 C 63.867188 55.921875 63.4375 55.457031 62.910156 55.457031 C 62.382812 55.457031 61.953125 55.921875 61.953125 56.492188 Z M 61.953125 56.492188 " fill-opacity="1" fill-rule="nonzero"/><path fill="#fffefa" d="M 64.824219 48.839844 C 64.824219 48.976562 64.800781 49.105469 64.75 49.234375 C 64.703125 49.359375 64.632812 49.472656 64.542969 49.570312 C 64.453125 49.664062 64.351562 49.738281 64.234375 49.792969 C 64.117188 49.84375 63.992188 49.871094 63.867188 49.871094 C 63.738281 49.871094 63.617188 49.84375 63.5 49.792969 C 63.382812 49.738281 63.28125 49.664062 63.191406 49.570312 C 63.101562 49.472656 63.03125 49.359375 62.984375 49.234375 C 62.933594 49.105469 62.910156 48.976562 62.910156 48.839844 C 62.910156 48.703125 62.933594 48.570312 62.984375 48.441406 C 63.03125 48.316406 63.101562 48.207031 63.191406 48.109375 C 63.28125 48.011719 63.382812 47.9375 63.5 47.882812 C 63.617188 47.832031 63.738281 47.804688 63.867188 47.804688 C 63.992188 47.804688 64.117188 47.832031 64.234375 47.882812 C 64.351562 47.9375 64.453125 48.011719 64.542969 48.109375 C 64.632812 48.207031 64.703125 48.316406 64.75 48.441406 C 64.800781 48.570312 64.824219 48.703125 64.824219 48.839844 Z M 64.824219 48.839844 " fill-opacity="1" fill-rule="nonzero"/><path fill="#fffefa" d="M 36.703125 108.089844 C 36.703125 108.226562 36.675781 108.359375 36.628906 108.488281 C 36.582031 108.613281 36.511719 108.726562 36.421875 108.820312 C 36.332031 108.917969 36.230469 108.992188 36.113281 109.046875 C 35.996094 109.097656 35.871094 109.125 35.746094 109.125 C 35.617188 109.125 35.496094 109.097656 35.378906 109.046875 C 35.261719 108.992188 35.160156 108.917969 35.070312 108.820312 C 34.980469 108.726562 34.910156 108.613281 34.863281 108.488281 C 34.8125 108.359375 34.789062 108.226562 34.789062 108.089844 C 34.789062 107.953125 34.8125 107.824219 34.863281 107.695312 C 34.910156 107.570312 34.980469 107.457031 35.070312 107.359375 C 35.160156 107.265625 35.261719 107.191406 35.378906 107.136719 C 35.496094 107.085938 35.617188 107.058594 35.746094 107.058594 C 35.871094 107.058594 35.996094 107.085938 36.113281 107.136719 C 36.230469 107.191406 36.332031 107.265625 36.421875 107.359375 C 36.511719 107.457031 36.582031 107.570312 36.628906 107.695312 C 36.675781 107.824219 36.703125 107.953125 36.703125 108.089844 Z M 36.703125 108.089844 " fill-opacity="1" fill-rule="nonzero"/><path fill="#fffefa" d="M 77.828125 80.253906 C 77.808594 81.289062 77.660156 82.292969 77.390625 83.25 L 80.96875 83.25 C 81.167969 82.277344 81.277344 81.277344 81.292969 80.253906 Z M 77.828125 80.253906 " fill-opacity="1" fill-rule="nonzero"/><path fill="#fffefa" d="M 71.777344 64.710938 C 72.746094 63.441406 73.488281 61.992188 73.988281 60.40625 L 70.25 60.40625 C 68.660156 63.878906 65.726562 65.179688 64.820312 65.507812 C 64.652344 65.542969 64.484375 65.582031 64.316406 65.625 C 64.25 65.644531 64.1875 65.664062 64.125 65.691406 C 62.785156 65.925781 60.777344 65.695312 59.441406 64.410156 C 58.136719 63.148438 57.734375 61.097656 58.253906 58.3125 C 58.441406 57.300781 57.835938 56.316406 56.898438 56.113281 C 55.960938 55.910156 55.046875 56.5625 54.859375 57.574219 C 53.890625 62.777344 55.5625 65.679688 57.136719 67.199219 C 58.863281 68.863281 61.113281 69.519531 63.125 69.519531 C 64.050781 69.519531 64.925781 69.378906 65.675781 69.132812 C 66.230469 69.023438 66.800781 68.960938 67.375 68.949219 C 70.117188 68.898438 72.714844 70 74.691406 72.054688 C 76.050781 73.46875 77 75.21875 77.476562 77.136719 L 81.03125 77.136719 C 80.496094 74.191406 79.140625 71.492188 77.09375 69.363281 C 75.355469 67.550781 73.253906 66.292969 70.972656 65.667969 C 71.246094 65.371094 71.515625 65.050781 71.777344 64.707031 Z M 71.777344 64.710938 " fill-opacity="1" fill-rule="nonzero"/><path fill="#fffefa" d="M 72.636719 24.253906 L 75.488281 20.644531 C 75.21875 19.667969 74.875 18.746094 74.457031 17.886719 L 71.96875 21.074219 C 72.292969 22.054688 72.515625 23.117188 72.632812 24.253906 Z M 72.636719 24.253906 " fill-opacity="1" fill-rule="nonzero"/><path fill="#fffefa" d="M 74.640625 57.292969 C 74.730469 56.5 74.773438 55.683594 74.757812 54.847656 C 74.71875 52.390625 74.125 50.078125 73.109375 48.046875 L 70.511719 50.851562 C 70.996094 52.105469 71.273438 53.476562 71.296875 54.914062 C 71.3125 55.773438 71.257812 56.5625 71.152344 57.292969 Z M 74.640625 57.292969 " fill-opacity="1" fill-rule="nonzero"/><g clip-path="url(#7cb9e85f18)"><path fill="#fffefa" d="M 79.984375 86.367188 L 75.996094 86.367188 C 74.8125 88.210938 73.109375 89.664062 71.054688 90.464844 C 69.402344 89.039062 67.4375 88.105469 65.191406 87.703125 C 64.84375 84.1875 63.375 80.941406 60.988281 78.453125 C 58.292969 75.648438 54.746094 74.148438 51 74.214844 C 50.234375 74.230469 49.382812 74.335938 48.503906 74.546875 C 49.457031 71.992188 50.046875 69.222656 50.007812 66.914062 C 49.960938 64.019531 49.179688 61.265625 47.738281 58.871094 C 48.933594 56.910156 49.625 54.636719 49.734375 52.285156 C 53.515625 45.449219 56.527344 44.789062 58.960938 44.253906 C 59.570312 44.117188 60.203125 44.042969 60.839844 44.03125 C 61.027344 44.027344 61.203125 44.027344 61.367188 44.035156 L 61.398438 44.035156 C 61.582031 44.042969 61.769531 44.054688 61.953125 44.074219 C 61.964844 44.074219 61.980469 44.074219 61.996094 44.078125 C 64.828125 44.363281 67.304688 45.867188 68.984375 48.09375 L 71.445312 45.441406 C 70.527344 44.289062 69.449219 43.289062 68.242188 42.488281 C 69.828125 41.535156 71.277344 40.183594 72.507812 38.460938 C 73.242188 37.433594 73.871094 36.316406 74.394531 35.121094 L 70.453125 35.121094 C 70.238281 35.484375 70.011719 35.839844 69.769531 36.175781 C 67.878906 38.816406 65.371094 40.296875 62.699219 40.347656 C 62.539062 40.351562 62.382812 40.347656 62.234375 40.34375 C 62.195312 40.339844 62.15625 40.339844 62.117188 40.339844 C 61.910156 40.320312 61.699219 40.308594 61.492188 40.300781 L 61.460938 40.300781 C 61.242188 40.289062 61.015625 40.289062 60.777344 40.292969 C 59.925781 40.3125 59.082031 40.410156 58.269531 40.59375 C 55.371094 41.230469 52.289062 42.292969 48.9375 46.910156 C 48.886719 46.765625 48.832031 46.617188 48.773438 46.476562 C 47.425781 43.074219 44.765625 40.417969 41.550781 39.214844 C 41.285156 38.335938 41.140625 37.414062 41.125 36.46875 C 41.082031 33.957031 41.949219 31.578125 43.566406 29.769531 C 45.183594 27.960938 47.355469 26.941406 49.683594 26.894531 C 50.097656 26.886719 50.515625 26.910156 50.929688 26.96875 C 53.292969 27.285156 55.460938 28.664062 56.875 30.75 C 57.441406 31.582031 58.523438 31.761719 59.296875 31.152344 C 60.066406 30.542969 60.234375 29.371094 59.667969 28.539062 C 58.1875 26.355469 56.113281 24.730469 53.777344 23.863281 C 53.582031 21.289062 54.574219 19.300781 55.507812 18.03125 C 57.203125 15.730469 59.867188 14.210938 62.289062 14.164062 C 65.207031 14.105469 67.738281 15.09375 69.589844 17.015625 C 69.921875 17.355469 70.222656 17.730469 70.503906 18.125 L 72.773438 15.210938 C 72.523438 14.902344 72.265625 14.601562 71.988281 14.316406 C 69.496094 11.730469 66.023438 10.347656 62.226562 10.421875 C 58.8125 10.488281 55.109375 12.5625 52.796875 15.699219 C 51.164062 17.921875 50.308594 20.503906 50.292969 23.164062 C 50.070312 23.15625 49.84375 23.148438 49.621094 23.15625 C 46.367188 23.21875 43.332031 24.644531 41.074219 27.171875 C 38.816406 29.699219 37.605469 33.023438 37.664062 36.535156 C 37.675781 37.199219 37.730469 37.851562 37.832031 38.496094 C 37.671875 38.492188 37.511719 38.492188 37.355469 38.496094 C 34.101562 38.558594 31.066406 39.984375 28.808594 42.511719 C 26.550781 45.039062 25.339844 48.367188 25.398438 51.875 C 25.429688 53.796875 25.835938 55.640625 26.605469 57.351562 C 26.628906 57.40625 26.652344 57.457031 26.675781 57.507812 C 26.546875 57.515625 26.414062 57.523438 26.285156 57.535156 C 19.582031 58.164062 16.679688 64.207031 16.773438 69.914062 C 16.828125 73.214844 18.058594 76.308594 20.230469 78.625 C 21.191406 79.648438 22.289062 80.46875 23.476562 81.070312 C 20.523438 83.65625 18.691406 87.648438 18.625 92.09375 C 18.542969 97.726562 20.566406 102.082031 24.179688 104.042969 C 24.652344 104.300781 25.140625 104.507812 25.640625 104.664062 C 25.648438 106.890625 26.289062 110.582031 29.914062 113.339844 C 31.902344 114.851562 33.820312 115.300781 35.398438 115.300781 C 36.082031 115.300781 36.699219 115.21875 37.234375 115.097656 C 37.578125 115.023438 37.902344 114.925781 38.203125 114.824219 C 39.066406 118.269531 40.765625 121.289062 43.046875 123.304688 C 45.183594 125.191406 47.738281 126.160156 50.527344 126.160156 C 51.175781 126.160156 51.839844 126.109375 52.507812 126.003906 C 53.242188 125.886719 53.953125 125.691406 54.628906 125.425781 C 55.714844 129.121094 58.226562 131.171875 58.683594 131.523438 C 59.105469 131.871094 61.3125 133.566406 64.390625 133.566406 C 65.859375 133.566406 67.527344 133.179688 69.292969 132.078125 C 73.664062 129.351562 73.878906 125.441406 73.621094 123.347656 C 73.578125 123.007812 73.515625 122.6875 73.449219 122.382812 L 72.871094 122.382812 L 70.421875 117.28125 C 68.929688 119.347656 66.710938 120.90625 63.394531 120.96875 C 62.4375 120.988281 61.679688 121.839844 61.695312 122.871094 C 61.710938 123.894531 62.484375 124.707031 63.425781 124.707031 L 63.457031 124.707031 C 65.886719 124.660156 68.074219 123.988281 69.945312 122.738281 C 70.175781 123.484375 70.34375 124.476562 70.148438 125.480469 C 69.886719 126.804688 69.019531 127.933594 67.5625 128.84375 C 63.945312 131.097656 61.003906 128.730469 60.804688 128.5625 C 60.753906 128.519531 60.742188 128.507812 60.683594 128.46875 C 60.582031 128.390625 58.363281 126.714844 57.75 123.546875 C 60.164062 121.476562 61.699219 118.375 61.660156 115.078125 C 61.632812 112.734375 60.484375 109.585938 57.976562 107.84375 C 56.238281 106.632812 53.203125 105.644531 48.601562 107.816406 C 47.726562 108.230469 47.324219 109.332031 47.707031 110.277344 C 48.089844 111.226562 49.113281 111.65625 49.988281 111.242188 C 51.75 110.410156 54.242188 109.691406 56.101562 110.984375 C 57.617188 112.039062 58.183594 114.039062 58.199219 115.128906 C 58.242188 118.601562 55.523438 121.753906 52.011719 122.304688 C 49.40625 122.714844 47.128906 122.078125 45.246094 120.414062 C 42.820312 118.273438 41.25 114.554688 41.042969 110.46875 C 40.835938 106.304688 41.699219 102.488281 43.613281 99.132812 C 45.046875 96.617188 46.574219 95.300781 46.613281 95.269531 C 46.65625 95.234375 46.691406 95.199219 46.726562 95.164062 C 48.472656 95.660156 50.296875 95.515625 51.832031 94.679688 C 53.867188 93.570312 55.046875 91.414062 55.0625 88.769531 C 55.070312 87.738281 54.300781 86.894531 53.34375 86.886719 L 53.332031 86.886719 C 52.382812 86.886719 51.605469 87.714844 51.601562 88.742188 C 51.59375 89.992188 51.144531 90.867188 50.269531 91.34375 C 49.054688 92.003906 47.273438 91.734375 45.941406 90.6875 C 44.859375 89.839844 43.140625 87.753906 43.773438 83.332031 C 43.914062 82.375 44.28125 81.5625 44.792969 80.882812 C 45.011719 80.660156 45.230469 80.417969 45.445312 80.15625 C 47.042969 78.640625 49.410156 77.984375 51.0625 77.953125 C 53.882812 77.898438 56.554688 79.03125 58.582031 81.148438 C 60.613281 83.261719 61.757812 86.101562 61.808594 89.144531 C 61.875 92.964844 60.171875 96.546875 57.257812 98.730469 C 56.472656 99.316406 56.277344 100.480469 56.820312 101.328125 C 57.15625 101.855469 57.695312 102.132812 58.242188 102.132812 C 58.582031 102.132812 58.925781 102.023438 59.230469 101.800781 C 62.472656 99.375 64.585938 95.636719 65.132812 91.5 C 68.335938 92.25 70.660156 94.507812 72.058594 98.226562 C 72.457031 99.296875 72.746094 100.382812 72.949219 101.417969 L 76.480469 101.417969 C 76.234375 99.964844 75.851562 98.386719 75.265625 96.824219 C 74.789062 95.550781 74.214844 94.402344 73.554688 93.378906 C 76.417969 91.882812 78.664062 89.386719 79.980469 86.371094 Z M 37.585938 110.671875 C 37.59375 110.808594 37.601562 110.949219 37.613281 111.085938 C 36.464844 111.59375 34.292969 112.097656 31.910156 110.285156 C 29.6875 108.59375 29.179688 106.390625 29.109375 104.972656 C 30.554688 104.78125 31.949219 104.191406 33.125 103.21875 C 35.824219 100.984375 36.902344 97.25 36.085938 92.980469 C 35.890625 91.96875 34.976562 91.320312 34.039062 91.527344 C 33.105469 91.738281 32.5 92.726562 32.695312 93.734375 C 33.242188 96.59375 32.648438 98.90625 31.019531 100.253906 C 29.546875 101.472656 27.476562 101.648438 25.738281 100.707031 C 23.359375 99.414062 22.03125 96.292969 22.089844 92.152344 C 22.160156 87.441406 24.867188 83.429688 28.828125 82.167969 C 29.632812 81.910156 30.472656 81.773438 31.324219 81.753906 L 31.402344 81.753906 C 31.457031 81.753906 31.511719 81.753906 31.5625 81.753906 C 31.597656 81.753906 31.628906 81.753906 31.664062 81.753906 L 31.789062 81.753906 C 33.21875 81.765625 37.019531 81.796875 39.859375 85.289062 C 39.960938 85.410156 40.070312 85.515625 40.191406 85.601562 C 40.296875 88.792969 41.425781 91.503906 43.453125 93.328125 C 41.402344 95.539062 37.117188 101.324219 37.585938 110.671875 Z M 43.027344 77.457031 C 42.042969 78.414062 41.238281 79.609375 40.75 81.070312 C 37.214844 78.058594 33.25 78.027344 31.8125 78.019531 L 31.648438 78.019531 C 31.648438 78.019531 31.640625 78.015625 31.636719 78.015625 C 31.546875 78.015625 31.457031 78.015625 31.367188 78.015625 C 31.332031 78.015625 31.300781 78.015625 31.257812 78.019531 C 30.195312 78.039062 29.140625 78.199219 28.125 78.5 C 23.832031 78.34375 20.3125 74.511719 20.234375 69.847656 C 20.175781 66.167969 21.800781 61.707031 26.585938 61.257812 C 27.675781 61.15625 28.65625 61.246094 29.515625 61.480469 C 29.816406 61.722656 30.175781 61.847656 30.535156 61.847656 C 32.21875 62.621094 33.257812 64.003906 33.511719 65.453125 C 33.839844 67.347656 32.808594 68.867188 30.75 69.515625 C 29.832031 69.804688 29.304688 70.84375 29.574219 71.832031 C 29.84375 72.824219 30.804688 73.394531 31.722656 73.101562 C 36.070312 71.730469 37.464844 67.925781 36.914062 64.765625 C 36.433594 61.996094 34.449219 59.34375 31.285156 58.148438 C 31.265625 58.125 31.246094 58.105469 31.226562 58.082031 C 31.222656 58.078125 31.214844 58.070312 31.207031 58.0625 C 31.152344 58 31.097656 57.933594 31.042969 57.863281 C 30.511719 57.21875 30.066406 56.5 29.722656 55.722656 C 29.171875 54.5 28.882812 53.183594 28.859375 51.808594 C 28.816406 49.296875 29.683594 46.914062 31.300781 45.105469 C 32.917969 43.296875 35.089844 42.277344 37.417969 42.230469 C 38.222656 42.214844 39.019531 42.316406 39.792969 42.535156 C 42.371094 43.265625 44.539062 45.289062 45.59375 47.941406 C 46.035156 49.054688 46.269531 50.242188 46.289062 51.46875 C 46.3125 53 45.992188 54.5 45.367188 55.847656 C 43.808594 54.3125 41.960938 53.171875 39.917969 52.503906 C 39 52.207031 38.035156 52.765625 37.757812 53.753906 C 37.480469 54.742188 38 55.78125 38.917969 56.082031 C 41.027344 56.769531 42.867188 58.128906 44.242188 60.011719 C 44.246094 60.011719 44.246094 60.015625 44.25 60.019531 C 45.710938 62.019531 46.503906 64.425781 46.546875 66.980469 C 46.601562 70.179688 44.941406 74.96875 43.027344 77.457031 Z M 43.027344 77.457031 " fill-opacity="1" fill-rule="nonzero"/></g><path fill="#fffefa" d="M 72.519531 29.097656 C 72.371094 30.101562 72.140625 31.074219 71.839844 32.003906 L 74.199219 32.003906 L 75.960938 29.554688 C 76.136719 28.324219 76.214844 27.066406 76.195312 25.789062 C 76.1875 25.390625 76.171875 25 76.144531 24.613281 L 72.601562 29.097656 Z M 72.519531 29.097656 " fill-opacity="1" fill-rule="nonzero"/><path fill="#fffefa" d="M 75.820312 104.53125 L 73.371094 104.53125 C 73.492188 106.183594 73.433594 107.378906 73.417969 107.621094 C 73.339844 108.933594 73.058594 111.5 72.113281 114.039062 L 74.089844 118.152344 C 76.0625 114.6875 76.695312 110.710938 76.871094 107.871094 C 76.890625 107.585938 76.921875 106.9375 76.90625 106.039062 Z M 75.820312 104.53125 " fill-opacity="1" fill-rule="nonzero"/></svg>