<svg xmlns="http://www.w3.org/2000/svg" xmlns:xlink="http://www.w3.org/1999/xlink" width="500" zoomAndPan="magnify" viewBox="0 0 375 374.999991" height="500" preserveAspectRatio="xMidYMid meet" version="1.0"><defs><g/><clipPath id="1353f9da5a"><path d="M 17.574219 123 L 357.324219 123 L 357.324219 259.496094 L 17.574219 259.496094 Z M 17.574219 123 " clip-rule="nonzero"/></clipPath><clipPath id="2b09c0247a"><path d="M 233.113281 154.886719 L 244 154.886719 L 244 166 L 233.113281 166 Z M 233.113281 154.886719 " clip-rule="nonzero"/></clipPath><clipPath id="d1db5b04f5"><path d="M 255 154.886719 L 266 154.886719 L 266 166 L 255 166 Z M 255 154.886719 " clip-rule="nonzero"/></clipPath><clipPath id="23b319cc07"><path d="M 267 154.886719 L 277.363281 154.886719 L 277.363281 166 L 267 166 Z M 267 154.886719 " clip-rule="nonzero"/></clipPath><clipPath id="d21856a476"><path d="M 246 154.886719 L 248 154.886719 L 248 166 L 246 166 Z M 246 154.886719 " clip-rule="nonzero"/></clipPath><clipPath id="2f018c5aff"><path d="M 251 154.886719 L 253 154.886719 L 253 166 L 251 166 Z M 251 154.886719 " clip-rule="nonzero"/></clipPath><clipPath id="fa3209e8aa"><path d="M 233.113281 188 L 244 188 L 244 199 L 233.113281 199 Z M 233.113281 188 " clip-rule="nonzero"/></clipPath><clipPath id="cc19989922"><path d="M 267 188 L 277.363281 188 L 277.363281 199 L 267 199 Z M 267 188 " clip-rule="nonzero"/></clipPath></defs><rect x="-37.5" width="450" fill="#ffffff" y="-37.499999" height="449.999989" fill-opacity="1"/><rect x="-37.5" width="450" fill="#222222" y="-37.499999" height="449.999989" fill-opacity="1"/><g clip-path="url(#1353f9da5a)"><path fill="#ffffff" d="M 272.28125 240.605469 C 273.675781 230.710938 278.5 218.597656 282.164062 211.589844 C 285.269531 205.644531 289.402344 201.171875 293.015625 196.429688 C 296.445312 191.925781 299.394531 187.164062 300.335938 180.445312 C 301.148438 174.664062 301.308594 167.679688 299.964844 162.042969 C 296.097656 147.40625 287.976562 137.46875 278.121094 131.855469 C 255.1875 118.796875 222.988281 129.15625 214.128906 157.703125 L 214.074219 157.847656 C 212.96875 160.394531 212.152344 166.46875 212.761719 173.914062 C 213.691406 185.253906 217.972656 199.738281 229.925781 209.976562 L 230.183594 210.269531 C 236.109375 219.222656 235.722656 228.078125 236.40625 234.226562 C 236.773438 237.519531 237.34375 239.964844 240.304688 240.6875 C 241.816406 241.054688 248.328125 240.769531 251.851562 240.300781 C 252.84375 232.984375 252.699219 222.585938 250.886719 215.503906 C 248.332031 215.199219 246.425781 214.558594 245.078125 213.792969 C 243.328125 212.796875 242.425781 211.539062 242.128906 210.402344 C 241.554688 208.222656 242.902344 206.039062 246.023438 205.636719 L 246.179688 205.625 C 248.871094 205.578125 251.128906 207.78125 252.613281 211.605469 C 252.765625 212.003906 252.914062 212.421875 253.054688 212.855469 C 253.925781 212.894531 254.867188 212.890625 255.878906 212.847656 C 257.695312 212.542969 259.355469 212.519531 260.859375 212.472656 C 260.878906 212 260.917969 211.519531 260.988281 211.011719 L 260.996094 210.957031 C 261.613281 207.503906 263.796875 205.347656 265.691406 204.683594 C 266.769531 204.308594 267.796875 204.375 268.605469 204.792969 C 269.707031 205.367188 270.59375 206.660156 270.347656 208.9375 C 270.335938 209.050781 270.3125 209.164062 270.273438 209.269531 C 269.402344 211.648438 268.292969 213.039062 267.027344 213.894531 C 266.023438 214.574219 264.902344 214.921875 263.65625 215.101562 C 263.65625 215.445312 263.652344 215.800781 263.640625 216.167969 C 263.652344 222.65625 263.175781 232.863281 263.664062 239.28125 C 263.730469 240.15625 264.019531 243.050781 264.007812 243.480469 C 264.0625 249.167969 259.242188 252.96875 252.746094 255.3125 C 243.191406 258.761719 230.148438 259.191406 227.320312 259.453125 C 227.277344 259.457031 227.234375 259.460938 227.191406 259.460938 L 18.980469 259.460938 C 18.203125 259.460938 17.574219 258.832031 17.574219 258.054688 C 17.574219 257.28125 18.203125 256.652344 18.980469 256.652344 L 227.132812 256.652344 C 230.023438 256.394531 242.578125 255.996094 251.792969 252.671875 C 256.761719 250.878906 260.832031 248.308594 261.175781 244.148438 C 261.234375 244.171875 261.179688 242.253906 261.136719 242.078125 C 261.054688 241.179688 260.910156 240.28125 260.847656 239.496094 C 260.355469 233.011719 260.832031 222.691406 260.816406 216.148438 L 260.816406 216.089844 C 260.828125 215.816406 260.835938 215.550781 260.839844 215.289062 C 259.449219 215.328125 257.925781 215.359375 256.265625 215.644531 L 256.089844 215.664062 C 255.296875 215.699219 254.542969 215.710938 253.824219 215.699219 C 255.582031 223.445312 255.644531 234.363281 254.496094 241.730469 C 254.488281 241.789062 254.476562 241.839844 254.460938 241.894531 L 254.445312 241.953125 C 254.378906 242.175781 254.257812 242.367188 254.105469 242.523438 C 253.953125 242.683594 253.761719 242.804688 253.542969 242.878906 L 253.484375 242.894531 C 253.429688 242.910156 253.375 242.921875 253.320312 242.929688 C 249.90625 243.535156 241.457031 243.871094 239.636719 243.429688 C 235.417969 242.402344 234.121094 239.230469 233.601562 234.539062 C 232.957031 228.753906 233.433594 220.40625 227.933594 211.984375 C 215.457031 201.207031 210.925781 186.042969 209.949219 174.144531 C 209.292969 166.140625 210.269531 159.601562 211.457031 156.796875 C 220.910156 126.484375 255.140625 115.523438 279.519531 129.402344 C 289.949219 135.34375 298.597656 145.828125 302.699219 161.355469 C 304.132812 167.34375 303.988281 174.726562 303.132812 180.835938 C 302.113281 188.101562 298.96875 193.269531 295.261719 198.136719 C 291.738281 202.761719 287.691406 207.101562 284.664062 212.894531 C 281.082031 219.75 276.242188 231.691406 275 241.257812 C 274.984375 242.296875 274.792969 244.011719 274.925781 245.921875 C 275.054688 247.71875 275.472656 249.710938 276.761719 251.371094 C 278.527344 253.65625 281.882812 255.203125 287.996094 255.039062 L 356.015625 255.039062 C 356.789062 255.039062 357.417969 255.667969 357.417969 256.441406 C 357.417969 257.21875 356.789062 257.847656 356.015625 257.847656 L 288.050781 257.847656 C 280.644531 258.042969 276.683594 255.859375 274.539062 253.089844 C 272.386719 250.3125 272.082031 246.808594 272.101562 244.148438 C 272.101562 244.148438 272.066406 242.269531 272.191406 241.289062 C 272.191406 241.226562 272.222656 240.761719 272.28125 240.605469 Z M 246.304688 208.449219 C 245.621094 208.546875 245.109375 208.769531 244.894531 209.179688 C 244.730469 209.503906 244.867188 209.886719 245.164062 210.269531 C 245.597656 210.839844 246.351562 211.355469 247.417969 211.792969 C 248.128906 212.082031 248.964844 212.328125 249.9375 212.511719 C 249.417969 211.199219 248.820312 210.113281 248.101562 209.363281 C 247.574219 208.8125 246.984375 208.460938 246.304688 208.449219 Z M 267.558594 208.464844 C 267.609375 207.925781 267.585938 207.539062 267.351562 207.328125 C 267.183594 207.179688 266.933594 207.25 266.675781 207.332031 C 265.457031 207.714844 264.183594 209.203125 263.78125 211.425781 L 263.742188 211.710938 C 263.734375 211.816406 263.722656 211.917969 263.710938 212.019531 L 263.695312 212.242188 C 264.328125 212.121094 264.914062 211.917969 265.445312 211.558594 C 266.292969 210.984375 266.972656 210.019531 267.558594 208.464844 Z M 267.558594 208.464844 " fill-opacity="1" fill-rule="evenodd"/></g><g fill="#ffffff" fill-opacity="1"><g transform="translate(29.561723, 156.094406)"><g><path d="M 3.171875 -34.234375 L 3.171875 0 L 23.234375 0 C 25.953125 0 28.109375 -2.15625 28.109375 -4.890625 L 28.109375 -12.5 C 28.109375 -14.609375 26.796875 -16.40625 24.953125 -17.109375 C 26.796875 -17.8125 28.109375 -19.578125 28.109375 -21.6875 L 28.109375 -29.34375 C 28.109375 -32.078125 25.953125 -34.234375 23.234375 -34.234375 Z M 7.828125 -14.875 L 21.25 -14.875 C 22.484375 -14.875 23.453125 -13.90625 23.453125 -12.671875 L 23.453125 -6.515625 C 23.453125 -5.375 22.53125 -4.484375 21.390625 -4.484375 L 7.828125 -4.484375 Z M 7.828125 -19.359375 L 7.828125 -29.75 L 21.390625 -29.75 C 22.53125 -29.75 23.453125 -28.859375 23.453125 -27.71875 L 23.453125 -21.5625 C 23.453125 -20.328125 22.484375 -19.359375 21.25 -19.359375 Z M 7.828125 -19.359375 "/></g></g></g><g fill="#ffffff" fill-opacity="1"><g transform="translate(60.840152, 156.094406)"><g><path d="M 3.125 -24.46875 L 3.125 0 L 7.390625 0 L 7.390625 -24.46875 Z M 2.8125 -34.234375 L 2.8125 -30.234375 L 7.75 -30.234375 L 7.75 -34.234375 Z M 2.8125 -34.234375 "/></g></g></g><g fill="#ffffff" fill-opacity="1"><g transform="translate(71.398276, 156.094406)"><g><path d="M 3.5625 -33.359375 L 3.5625 -4.890625 C 3.5625 -2.15625 5.71875 0 8.453125 0 L 13.953125 0 L 13.953125 -4.046875 L 9.90625 -4.046875 C 8.75 -4.046875 7.828125 -5.0625 7.828125 -6.203125 L 7.828125 -20.375 L 13.953125 -20.375 L 13.953125 -24.46875 L 7.828125 -24.46875 L 7.828125 -33.359375 Z M 3.5625 -33.359375 "/></g></g></g><g fill="#ffffff" fill-opacity="1"><g transform="translate(85.959681, 156.094406)"><g><path d="M 8.046875 -24.46875 C 5.328125 -24.46875 3.171875 -22.265625 3.171875 -19.53125 L 3.171875 -15.140625 C 3.171875 -12.40625 5.328125 -10.25 8.046875 -10.25 L 16.015625 -10.25 C 17.15625 -10.25 18.078125 -9.328125 18.078125 -8.1875 L 18.078125 -6.203125 C 18.078125 -5.0625 17.15625 -4.046875 16.015625 -4.046875 L 9.546875 -4.046875 C 8.40625 -4.046875 7.4375 -5.0625 7.4375 -6.203125 L 7.4375 -7.34375 L 3.171875 -7.34375 L 3.171875 -4.890625 C 3.171875 -2.25 5.40625 0 8.046875 0 L 17.46875 0 C 20.203125 0 22.359375 -2.15625 22.359375 -4.890625 L 22.359375 -8.9375 C 22.359375 -11.84375 20.203125 -14.171875 17.46875 -14.171875 L 9.546875 -14.171875 C 8.40625 -14.171875 7.4375 -15.09375 7.4375 -16.234375 L 7.4375 -18.21875 C 7.4375 -19.359375 8.40625 -20.375 9.546875 -20.375 L 16.015625 -20.375 C 17.15625 -20.375 18.078125 -19.359375 18.078125 -18.21875 L 18.078125 -17.078125 L 22.359375 -17.078125 L 22.359375 -19.53125 C 22.359375 -22.171875 20.109375 -24.46875 17.46875 -24.46875 Z M 8.046875 -24.46875 "/></g></g></g><g fill="#ffffff" fill-opacity="1"><g transform="translate(91.762498, 195.898816)"><g><path d="M 13.96875 -26.453125 L 13.96875 -15.875 C 13.1875 -17.75 11.28125 -18.90625 9.390625 -18.90625 L 6.21875 -18.90625 C 4.109375 -18.90625 2.453125 -17.203125 2.453125 -15.09375 L 2.453125 -3.78125 C 2.453125 -1.671875 4.109375 0 6.21875 0 L 9.390625 0 C 11.421875 0 13.21875 -1.296875 13.96875 -3.09375 L 13.96875 0 L 17.265625 0 L 17.265625 -26.453125 Z M 7.375 -15.734375 L 10.40625 -15.734375 C 12.375 -15.734375 13.96875 -14.140625 13.96875 -12.171875 L 13.96875 -6.90625 C 13.96875 -4.9375 12.375 -3.125 10.40625 -3.125 L 7.375 -3.125 C 6.5 -3.125 5.75 -3.90625 5.75 -4.796875 L 5.75 -14.078125 C 5.75 -14.953125 6.5 -15.734375 7.375 -15.734375 Z M 7.375 -15.734375 "/></g></g></g><g fill="#ffffff" fill-opacity="1"><g transform="translate(111.480244, 195.898816)"><g><path d="M 6.21875 -18.90625 C 4.109375 -18.90625 2.453125 -17.203125 2.453125 -15.09375 L 2.453125 -3.78125 C 2.453125 -1.671875 4.109375 0 6.21875 0 L 13.5 0 C 15.609375 0 17.265625 -1.671875 17.265625 -3.78125 L 17.265625 -6.015625 L 13.96875 -6.015625 L 13.96875 -4.796875 C 13.96875 -3.90625 13.265625 -3.125 12.375 -3.125 L 7.375 -3.125 C 6.5 -3.125 5.75 -3.90625 5.75 -4.796875 L 5.75 -7.921875 L 17.265625 -7.921875 L 17.265625 -15.09375 C 17.265625 -17.203125 15.609375 -18.90625 13.5 -18.90625 Z M 5.75 -10.953125 L 5.75 -14.078125 C 5.75 -14.953125 6.5 -15.734375 7.375 -15.734375 L 12.375 -15.734375 C 13.265625 -15.734375 13.96875 -14.953125 13.96875 -14.078125 L 13.96875 -10.953125 Z M 5.75 -10.953125 "/></g></g></g><g fill="#ffffff" fill-opacity="1"><g transform="translate(30.416699, 236.798802)"><g><path d="M 5.3125 -22.5625 C 3.515625 -22.5625 2.09375 -21.140625 2.09375 -19.34375 L 2.09375 -3.21875 C 2.09375 -1.421875 3.515625 0 5.3125 0 L 15.3125 0 C 17.109375 0 18.53125 -1.421875 18.53125 -3.21875 L 18.53125 -5.421875 L 15.453125 -5.421875 L 15.453125 -4.296875 C 15.453125 -3.53125 14.84375 -2.953125 14.09375 -2.953125 L 6.53125 -2.953125 C 5.765625 -2.953125 5.15625 -3.53125 5.15625 -4.296875 L 5.15625 -18.265625 C 5.15625 -19.03125 5.765625 -19.609375 6.53125 -19.609375 L 14.09375 -19.609375 C 14.84375 -19.609375 15.453125 -19.03125 15.453125 -18.265625 L 15.453125 -17.140625 L 18.53125 -17.140625 L 18.53125 -19.34375 C 18.53125 -21.140625 17.109375 -22.5625 15.3125 -22.5625 Z M 5.3125 -22.5625 "/></g></g></g><g fill="#ffffff" fill-opacity="1"><g transform="translate(50.566265, 236.798802)"><g><path d="M 5.3125 -16.125 C 3.515625 -16.125 2.09375 -14.671875 2.09375 -12.875 L 2.09375 -3.21875 C 2.09375 -1.421875 3.515625 0 5.3125 0 L 11.515625 0 C 13.3125 0 14.734375 -1.421875 14.734375 -3.21875 L 14.734375 -12.875 C 14.734375 -14.671875 13.3125 -16.125 11.515625 -16.125 Z M 6.296875 -13.421875 L 10.5625 -13.421875 C 11.3125 -13.421875 11.921875 -12.765625 11.921875 -12 L 11.921875 -4.09375 C 11.921875 -3.328125 11.3125 -2.671875 10.5625 -2.671875 L 6.296875 -2.671875 C 5.53125 -2.671875 4.90625 -3.328125 4.90625 -4.09375 L 4.90625 -12 C 4.90625 -12.765625 5.53125 -13.421875 6.296875 -13.421875 Z M 6.296875 -13.421875 "/></g></g></g><g fill="#ffffff" fill-opacity="1"><g transform="translate(67.381732, 236.798802)"><g><path d="M 2.09375 -16.125 L 2.09375 0 L 4.90625 0 L 4.90625 -10.375 C 4.90625 -12.0625 6.296875 -13.421875 7.96875 -13.421875 L 10.5625 -13.421875 C 11.3125 -13.421875 11.921875 -12.765625 11.921875 -12 L 11.921875 0 L 14.734375 0 L 14.734375 -12.875 C 14.734375 -14.671875 13.3125 -16.125 11.515625 -16.125 L 8.78125 -16.125 C 7.15625 -16.125 5.5625 -15.171875 4.90625 -13.578125 L 4.90625 -16.125 Z M 2.09375 -16.125 "/></g></g></g><g fill="#ffffff" fill-opacity="1"><g transform="translate(84.197198, 236.798802)"><g><path d="M 2.09375 -22.5625 L 2.09375 0 L 4.90625 0 L 4.90625 -10.375 C 4.90625 -12.0625 6.4375 -13.421875 8.203125 -13.421875 L 10.5625 -13.421875 C 11.3125 -13.421875 11.921875 -12.765625 11.921875 -12 L 11.921875 0 L 14.734375 0 L 14.734375 -12.875 C 14.734375 -14.671875 13.3125 -16.125 11.515625 -16.125 L 9.015625 -16.125 C 7.3125 -16.125 5.59375 -15.140625 4.90625 -13.515625 L 4.90625 -22.5625 Z M 2.09375 -22.5625 "/></g></g></g><g fill="#ffffff" fill-opacity="1"><g transform="translate(101.012665, 236.798802)"><g><path d="M 5.3125 -16.125 C 3.515625 -16.125 2.09375 -14.671875 2.09375 -12.875 L 2.09375 -3.21875 C 2.09375 -1.421875 3.515625 0 5.3125 0 L 11.515625 0 C 13.3125 0 14.734375 -1.421875 14.734375 -3.21875 L 14.734375 -5.140625 L 11.921875 -5.140625 L 11.921875 -4.09375 C 11.921875 -3.328125 11.3125 -2.671875 10.5625 -2.671875 L 6.296875 -2.671875 C 5.53125 -2.671875 4.90625 -3.328125 4.90625 -4.09375 L 4.90625 -6.75 L 14.734375 -6.75 L 14.734375 -12.875 C 14.734375 -14.671875 13.3125 -16.125 11.515625 -16.125 Z M 4.90625 -9.34375 L 4.90625 -12 C 4.90625 -12.765625 5.53125 -13.421875 6.296875 -13.421875 L 10.5625 -13.421875 C 11.3125 -13.421875 11.921875 -12.765625 11.921875 -12 L 11.921875 -9.34375 Z M 4.90625 -9.34375 "/></g></g></g><g fill="#ffffff" fill-opacity="1"><g transform="translate(117.828132, 236.798802)"><g><path d="M 5.3125 -16.125 C 3.515625 -16.125 2.09375 -14.671875 2.09375 -12.875 L 2.09375 -3.21875 C 2.09375 -1.421875 3.515625 0 5.3125 0 L 11.515625 0 C 13.3125 0 14.734375 -1.421875 14.734375 -3.21875 L 14.734375 -5.140625 L 11.921875 -5.140625 L 11.921875 -4.09375 C 11.921875 -3.328125 11.3125 -2.671875 10.5625 -2.671875 L 6.296875 -2.671875 C 5.53125 -2.671875 4.90625 -3.328125 4.90625 -4.09375 L 4.90625 -12 C 4.90625 -12.765625 5.53125 -13.421875 6.296875 -13.421875 L 10.5625 -13.421875 C 11.3125 -13.421875 11.921875 -12.765625 11.921875 -12 L 11.921875 -10.96875 L 14.734375 -10.96875 L 14.734375 -12.875 C 14.734375 -14.671875 13.3125 -16.125 11.515625 -16.125 Z M 5.3125 -16.125 "/></g></g></g><g fill="#ffffff" fill-opacity="1"><g transform="translate(134.2377, 236.798802)"><g><path d="M 2.0625 -16.125 L 2.0625 0 L 4.875 0 L 4.875 -16.125 Z M 1.859375 -22.5625 L 1.859375 -19.921875 L 5.109375 -19.921875 L 5.109375 -22.5625 Z M 1.859375 -22.5625 "/></g></g></g><g fill="#ffffff" fill-opacity="1"><g transform="translate(141.195822, 236.798802)"><g><path d="M 2.09375 -16.125 L 2.09375 0 L 4.90625 0 L 4.90625 -9.921875 C 4.90625 -11.828125 6.296875 -13.421875 7.96875 -13.421875 L 8.96875 -13.421875 C 9.71875 -13.421875 10.375 -12.765625 10.375 -12 L 10.375 0 L 13.140625 0 L 13.140625 -10.375 C 13.140625 -12.0625 14.53125 -13.421875 16.21875 -13.421875 L 17.21875 -13.421875 C 17.984375 -13.421875 18.625 -12.765625 18.625 -12 L 18.625 0 L 21.4375 0 L 21.4375 -12.875 C 21.4375 -14.671875 20.015625 -16.125 18.21875 -16.125 L 17 -16.125 C 15.28125 -16.125 13.75 -15.046875 13.078125 -13.546875 C 12.765625 -15.046875 11.390625 -16.125 9.828125 -16.125 L 8.703125 -16.125 C 7.078125 -16.125 5.53125 -15.015625 4.90625 -13.28125 L 4.90625 -16.125 Z M 2.09375 -16.125 "/></g></g></g><g fill="#ffffff" fill-opacity="1"><g transform="translate(164.708473, 236.798802)"><g><path d="M 5.3125 -16.125 C 3.515625 -16.125 2.09375 -14.671875 2.09375 -12.875 L 2.09375 -3.21875 C 2.09375 -1.421875 3.515625 0 5.3125 0 L 11.515625 0 C 13.3125 0 14.734375 -1.421875 14.734375 -3.21875 L 14.734375 -5.140625 L 11.921875 -5.140625 L 11.921875 -4.09375 C 11.921875 -3.328125 11.3125 -2.671875 10.5625 -2.671875 L 6.296875 -2.671875 C 5.53125 -2.671875 4.90625 -3.328125 4.90625 -4.09375 L 4.90625 -6.75 L 14.734375 -6.75 L 14.734375 -12.875 C 14.734375 -14.671875 13.3125 -16.125 11.515625 -16.125 Z M 4.90625 -9.34375 L 4.90625 -12 C 4.90625 -12.765625 5.53125 -13.421875 6.296875 -13.421875 L 10.5625 -13.421875 C 11.3125 -13.421875 11.921875 -12.765625 11.921875 -12 L 11.921875 -9.34375 Z M 4.90625 -9.34375 "/></g></g></g><g fill="#ffffff" fill-opacity="1"><g transform="translate(181.52394, 236.798802)"><g><path d="M 2.09375 -16.125 L 2.09375 0 L 4.90625 0 L 4.90625 -10.375 C 4.90625 -12.0625 6.296875 -13.421875 7.96875 -13.421875 L 10.5625 -13.421875 C 11.3125 -13.421875 11.921875 -12.765625 11.921875 -12 L 11.921875 0 L 14.734375 0 L 14.734375 -12.875 C 14.734375 -14.671875 13.3125 -16.125 11.515625 -16.125 L 8.78125 -16.125 C 7.15625 -16.125 5.5625 -15.171875 4.90625 -13.578125 L 4.90625 -16.125 Z M 2.09375 -16.125 "/></g></g></g><g fill="#ffffff" fill-opacity="1"><g transform="translate(198.339407, 236.798802)"><g><path d="M 2.34375 -21.984375 L 2.34375 -3.21875 C 2.34375 -1.421875 3.765625 0 5.5625 0 L 9.1875 0 L 9.1875 -2.671875 L 6.53125 -2.671875 C 5.765625 -2.671875 5.15625 -3.328125 5.15625 -4.09375 L 5.15625 -13.421875 L 9.1875 -13.421875 L 9.1875 -16.125 L 5.15625 -16.125 L 5.15625 -21.984375 Z M 2.34375 -21.984375 "/></g></g></g><g fill="#ffffff" fill-opacity="1"><g transform="translate(207.935815, 236.798802)"><g><path d="M 5.3125 -16.125 C 3.515625 -16.125 2.09375 -14.671875 2.09375 -12.875 L 2.09375 -3.21875 C 2.09375 -1.421875 3.515625 0 5.3125 0 L 11.515625 0 C 13.3125 0 14.734375 -1.421875 14.734375 -3.21875 L 14.734375 -12.875 C 14.734375 -14.671875 13.3125 -16.125 11.515625 -16.125 Z M 6.296875 -13.421875 L 10.5625 -13.421875 C 11.3125 -13.421875 11.921875 -12.765625 11.921875 -12 L 11.921875 -4.09375 C 11.921875 -3.328125 11.3125 -2.671875 10.5625 -2.671875 L 6.296875 -2.671875 C 5.53125 -2.671875 4.90625 -3.328125 4.90625 -4.09375 L 4.90625 -12 C 4.90625 -12.765625 5.53125 -13.421875 6.296875 -13.421875 Z M 6.296875 -13.421875 "/></g></g></g><g clip-path="url(#2b09c0247a)"><path fill="#fef536" d="M 238.199219 164.183594 C 236.140625 164.183594 234.46875 162.402344 234.46875 160.210938 C 234.46875 158.019531 236.140625 156.234375 238.199219 156.234375 C 240.257812 156.234375 241.933594 158.019531 241.933594 160.210938 C 241.933594 162.402344 240.257812 164.183594 238.199219 164.183594 Z M 238.199219 154.890625 C 235.398438 154.890625 233.121094 157.277344 233.121094 160.210938 C 233.121094 163.144531 235.398438 165.53125 238.199219 165.53125 C 241.003906 165.53125 243.28125 163.144531 243.28125 160.210938 C 243.28125 157.277344 241.003906 154.890625 238.199219 154.890625 " fill-opacity="1" fill-rule="nonzero"/></g><g clip-path="url(#d1db5b04f5)"><path fill="#fef536" d="M 260.277344 164.183594 C 258.21875 164.183594 256.546875 162.402344 256.546875 160.210938 C 256.546875 158.019531 258.21875 156.234375 260.277344 156.234375 C 262.335938 156.234375 264.011719 158.019531 264.011719 160.210938 C 264.011719 162.402344 262.335938 164.183594 260.277344 164.183594 Z M 260.277344 154.890625 C 257.476562 154.890625 255.199219 157.277344 255.199219 160.210938 C 255.199219 163.144531 257.476562 165.53125 260.277344 165.53125 C 263.078125 165.53125 265.359375 163.144531 265.359375 160.210938 C 265.359375 157.277344 263.078125 154.890625 260.277344 154.890625 " fill-opacity="1" fill-rule="nonzero"/></g><g clip-path="url(#23b319cc07)"><path fill="#fef536" d="M 272.171875 156.234375 C 274.230469 156.234375 275.902344 158.019531 275.902344 160.210938 C 275.902344 162.402344 274.230469 164.183594 272.171875 164.183594 C 270.113281 164.183594 268.4375 162.402344 268.4375 160.210938 C 268.4375 158.019531 270.113281 156.234375 272.171875 156.234375 Z M 272.171875 165.53125 C 274.972656 165.53125 277.25 163.144531 277.25 160.210938 C 277.25 157.277344 274.972656 154.890625 272.171875 154.890625 C 269.371094 154.890625 267.089844 157.277344 267.089844 160.210938 C 267.089844 163.144531 269.371094 165.53125 272.171875 165.53125 " fill-opacity="1" fill-rule="nonzero"/></g><g clip-path="url(#d21856a476)"><path fill="#fef536" d="M 246.863281 154.890625 C 246.492188 154.890625 246.191406 155.191406 246.191406 155.5625 L 246.191406 164.859375 C 246.191406 165.230469 246.492188 165.53125 246.863281 165.53125 C 247.234375 165.53125 247.539062 165.230469 247.539062 164.859375 L 247.539062 155.5625 C 247.539062 155.191406 247.234375 154.890625 246.863281 154.890625 " fill-opacity="1" fill-rule="nonzero"/></g><g clip-path="url(#2f018c5aff)"><path fill="#fef536" d="M 252.199219 154.890625 C 251.828125 154.890625 251.527344 155.191406 251.527344 155.5625 L 251.527344 164.859375 C 251.527344 165.230469 251.828125 165.53125 252.199219 165.53125 C 252.570312 165.53125 252.875 165.230469 252.875 164.859375 L 252.875 155.5625 C 252.875 155.191406 252.570312 154.890625 252.199219 154.890625 " fill-opacity="1" fill-rule="nonzero"/></g><path fill="#fef536" d="M 260.277344 180.878906 C 258.21875 180.878906 256.546875 179.097656 256.546875 176.90625 C 256.546875 174.714844 258.21875 172.929688 260.277344 172.929688 C 262.335938 172.929688 264.011719 174.714844 264.011719 176.90625 C 264.011719 179.097656 262.335938 180.878906 260.277344 180.878906 Z M 260.277344 171.582031 C 257.476562 171.582031 255.199219 173.96875 255.199219 176.90625 C 255.199219 179.839844 257.476562 182.226562 260.277344 182.226562 C 263.078125 182.226562 265.359375 179.839844 265.359375 176.90625 C 265.359375 173.96875 263.078125 171.582031 260.277344 171.582031 " fill-opacity="1" fill-rule="nonzero"/><path fill="#fef536" d="M 244.046875 171.582031 C 243.675781 171.582031 243.375 171.882812 243.375 172.257812 L 243.375 181.554688 C 243.375 181.925781 243.675781 182.226562 244.046875 182.226562 C 244.417969 182.226562 244.71875 181.925781 244.71875 181.554688 L 244.71875 172.257812 C 244.71875 171.882812 244.417969 171.582031 244.046875 171.582031 " fill-opacity="1" fill-rule="nonzero"/><path fill="#fef536" d="M 238.875 181.554688 L 238.875 172.257812 C 238.875 171.882812 238.574219 171.582031 238.199219 171.582031 C 237.828125 171.582031 237.527344 171.882812 237.527344 172.257812 L 237.527344 181.554688 C 237.527344 181.925781 237.828125 182.226562 238.199219 182.226562 C 238.574219 182.226562 238.875 181.925781 238.875 181.554688 " fill-opacity="1" fill-rule="nonzero"/><path fill="#fef536" d="M 250.042969 171.582031 C 249.667969 171.582031 249.367188 171.882812 249.367188 172.257812 L 249.367188 181.554688 C 249.367188 181.925781 249.667969 182.226562 250.042969 182.226562 C 250.414062 182.226562 250.714844 181.925781 250.714844 181.554688 L 250.714844 172.257812 C 250.714844 171.882812 250.414062 171.582031 250.042969 171.582031 " fill-opacity="1" fill-rule="nonzero"/><path fill="#fef536" d="M 268.972656 172.257812 L 268.972656 181.554688 C 268.972656 181.925781 269.273438 182.226562 269.644531 182.226562 C 270.015625 182.226562 270.320312 181.925781 270.320312 181.554688 L 270.320312 172.257812 C 270.320312 171.882812 270.015625 171.582031 269.644531 171.582031 C 269.273438 171.582031 268.972656 171.882812 268.972656 172.257812 " fill-opacity="1" fill-rule="nonzero"/><path fill="#fef536" d="M 274.789062 172.257812 L 274.789062 181.554688 C 274.789062 181.925781 275.089844 182.226562 275.460938 182.226562 C 275.832031 182.226562 276.132812 181.925781 276.132812 181.554688 L 276.132812 172.257812 C 276.132812 171.882812 275.832031 171.582031 275.460938 171.582031 C 275.089844 171.582031 274.789062 171.882812 274.789062 172.257812 " fill-opacity="1" fill-rule="nonzero"/><g clip-path="url(#fa3209e8aa)"><path fill="#fef536" d="M 238.199219 197.574219 C 236.140625 197.574219 234.46875 195.789062 234.46875 193.597656 C 234.46875 191.40625 236.140625 189.625 238.199219 189.625 C 240.257812 189.625 241.933594 191.40625 241.933594 193.597656 C 241.933594 195.789062 240.257812 197.574219 238.199219 197.574219 Z M 238.199219 188.277344 C 235.398438 188.277344 233.121094 190.664062 233.121094 193.597656 C 233.121094 196.535156 235.398438 198.921875 238.199219 198.921875 C 241.003906 198.921875 243.28125 196.535156 243.28125 193.597656 C 243.28125 190.664062 241.003906 188.277344 238.199219 188.277344 " fill-opacity="1" fill-rule="nonzero"/></g><g clip-path="url(#cc19989922)"><path fill="#fef536" d="M 272.171875 197.574219 C 270.113281 197.574219 268.4375 195.789062 268.4375 193.597656 C 268.4375 191.40625 270.113281 189.625 272.171875 189.625 C 274.230469 189.625 275.902344 191.40625 275.902344 193.597656 C 275.902344 195.789062 274.230469 197.574219 272.171875 197.574219 Z M 272.171875 188.277344 C 269.371094 188.277344 267.089844 190.664062 267.089844 193.597656 C 267.089844 196.535156 269.371094 198.921875 272.171875 198.921875 C 274.972656 198.921875 277.25 196.535156 277.25 193.597656 C 277.25 190.664062 274.972656 188.277344 272.171875 188.277344 " fill-opacity="1" fill-rule="nonzero"/></g><path fill="#fef536" d="M 246.863281 188.277344 C 246.492188 188.277344 246.191406 188.578125 246.191406 188.949219 L 246.191406 198.246094 C 246.191406 198.621094 246.492188 198.921875 246.863281 198.921875 C 247.234375 198.921875 247.539062 198.621094 247.539062 198.246094 L 247.539062 188.949219 C 247.539062 188.578125 247.234375 188.277344 246.863281 188.277344 " fill-opacity="1" fill-rule="nonzero"/><path fill="#fef536" d="M 252.199219 188.277344 C 251.828125 188.277344 251.527344 188.578125 251.527344 188.949219 L 251.527344 198.246094 C 251.527344 198.621094 251.828125 198.921875 252.199219 198.921875 C 252.570312 198.921875 252.875 198.621094 252.875 198.246094 L 252.875 188.949219 C 252.875 188.578125 252.570312 188.277344 252.199219 188.277344 " fill-opacity="1" fill-rule="nonzero"/><path fill="#fef536" d="M 257.773438 188.277344 C 257.402344 188.277344 257.101562 188.578125 257.101562 188.949219 L 257.101562 198.246094 C 257.101562 198.621094 257.402344 198.921875 257.773438 198.921875 C 258.148438 198.921875 258.449219 198.621094 258.449219 198.246094 L 258.449219 188.949219 C 258.449219 188.578125 258.148438 188.277344 257.773438 188.277344 " fill-opacity="1" fill-rule="nonzero"/><path fill="#fef536" d="M 263.351562 188.277344 C 262.980469 188.277344 262.675781 188.578125 262.675781 188.949219 L 262.675781 198.246094 C 262.675781 198.621094 262.980469 198.921875 263.351562 198.921875 C 263.722656 198.921875 264.023438 198.621094 264.023438 198.246094 L 264.023438 188.949219 C 264.023438 188.578125 263.722656 188.277344 263.351562 188.277344 " fill-opacity="1" fill-rule="nonzero"/></svg>